<svg width="140" height="140" viewBox="0 0 140 140" fill="none" xmlns="http://www.w3.org/2000/svg">
<circle cx="70" cy="70" r="70" fill="#E3EDF9"/>
<g clip-path="url(#clip0_2001_530)">
<path d="M73.2969 35.0141C83.0652 35.7477 92.77 41.631 98.4194 49.4825C108.174 63.0268 106.96 81.756 95.5629 93.8965C98.9272 93.4662 99.6677 98.6229 96.5856 98.9968C94.6249 99.2296 89.3141 99.2084 87.3322 98.9968C86.2672 98.8839 85.3433 97.9668 85.2093 96.8805C84.8566 94.0094 85.4209 90.3341 85.2869 87.3854C85.9287 85.7981 87.7483 85.0998 89.2153 86.1367C89.5398 86.3695 90.2309 87.2654 90.2309 87.6252V91.9354C103.97 79.6609 102.905 57.4327 88.3337 46.2446C83.8975 42.8373 79.3272 41.1372 73.8259 40.2131C72.1826 39.938 70.4123 40.4177 69.7282 38.3578C69.2133 36.813 70.0244 35.6631 71.4138 35.0212C72.0345 35.0564 72.6763 34.9718 73.2969 35.0212V35.0141Z" fill="#132956"/>
<path d="M51.6589 46.3081C46.5455 50.2092 42.6594 56.0078 41.0372 62.272C36.4176 80.1195 48.5838 97.727 66.8085 99.7657C68.1344 99.9139 70.5042 99.6811 71.4916 100.415C73.3254 101.776 72.5707 104.647 70.3843 104.944C68.9244 105.141 66.3148 104.824 64.7984 104.598C52.4417 102.799 41.6649 94.0588 37.278 82.4121C31.9954 68.4164 36.1143 52.5794 47.5752 43.0914C46.7571 42.9362 45.9742 43.1055 45.1561 42.8515C42.4407 42.005 42.7934 38.1181 46.08 37.8359C47.9702 37.6736 52.5757 37.6101 54.3813 37.857C55.3334 37.984 56.2715 38.6542 56.5888 39.5712C57.0332 40.834 56.9556 46.6891 56.8286 48.2763C56.7017 49.8635 55.8977 51.4296 54.0851 51.3378C53.1893 51.2885 51.6518 50.0822 51.6518 49.2145V46.3152L51.6589 46.3081Z" fill="#132956"/>
<path d="M69.5026 50.7453C54.9383 51.8387 46.7288 68.4939 54.9806 80.6979C63.0351 92.6126 80.893 91.8931 87.8471 79.287C95.2456 65.8838 84.6733 49.6095 69.5026 50.7453ZM78.5021 77.6222C77.5217 78.6028 75.9348 78.6028 74.9545 77.6222L68.4728 71.1393C68.4728 71.1393 68.4446 71.097 68.4235 71.0758C67.8663 70.6173 67.5066 69.9259 67.5066 69.15V60.7553C67.5066 59.3727 68.628 58.244 70.0174 58.244C71.3998 58.244 72.5283 59.3656 72.5283 60.7553V68.0918L78.5091 74.0739C79.4895 75.0544 79.4895 76.6417 78.5091 77.6222H78.5021Z" fill="#132956"/>
</g>
<defs>
<clipPath id="clip0_2001_530">
<rect width="70" height="70" fill="white" transform="translate(35 35)"/>
</clipPath>
</defs>
</svg>
