<svg width="140" height="140" viewBox="0 0 140 140" fill="none" xmlns="http://www.w3.org/2000/svg">
<circle cx="70" cy="70" r="70" fill="#E3EDF9"/>
<g clip-path="url(#clip0_2001_532)">
<path d="M45.4069 50.8065C48.0088 50.8065 50.1207 48.7042 50.1207 46.114V34.9998C50.1207 34.9998 49.4143 34.9496 48.9314 35.3011C48.4557 35.6599 35.3595 49.228 35.3595 49.228C35.3595 49.228 34.8406 49.6298 35.0496 50.8137H45.4141L45.4069 50.8065Z" fill="#132956"/>
<path d="M100.805 75.7545H100.228V71.471C100.228 66.1973 96.9058 61.7129 92.2353 59.9334V59.9047C90.8802 59.4025 89.4243 59.1155 87.8963 59.1155H84.9772C78.1156 59.1155 72.5514 64.6546 72.5514 71.4781V75.7545H72.0757C69.762 75.7545 67.8809 77.62 67.8809 79.9304V92.0204C67.8809 99.1883 73.719 105 80.9194 105H91.947C99.1473 105 104.985 99.1883 104.985 92.0204V79.9304C104.985 77.6272 103.112 75.7616 100.798 75.7616L100.805 75.7545ZM89.7559 92.3863C89.7559 94.2159 88.2783 95.7012 86.4404 95.7227C84.6097 95.7012 83.1249 94.2159 83.1249 92.3863V88.153C83.1249 86.3234 84.6024 84.8381 86.4404 84.8166C88.2711 84.8381 89.7559 86.3234 89.7559 88.153V92.3863ZM93.2443 75.7545H79.622V71.0691C79.622 68.3283 81.8564 66.104 84.6096 66.104H88.2495C91.01 66.104 93.2443 68.3283 93.2443 71.0763V75.7545Z" fill="#132956"/>
<path d="M63.6432 92.0203V79.9303C63.6432 76.6298 65.546 73.7669 68.3138 72.3678V71.4781C68.3138 62.2868 75.824 54.8104 85.057 54.8104H87.8967C89.3959 54.8104 90.8519 55.0113 92.2357 55.3844V41.4289C92.2429 37.8772 89.3455 35 85.7849 35H55.0158V45.3249C55.0158 50.8784 50.4966 55.3772 44.918 55.3772H35.0508V98.5711C35.0508 102.123 37.941 105 41.5088 105H69.5607C65.9353 101.829 63.6432 97.1863 63.6432 92.0203Z" fill="#132956"/>
</g>
<defs>
<clipPath id="clip0_2001_532">
<rect width="70" height="70" fill="white" transform="translate(35 35)"/>
</clipPath>
</defs>
</svg>
