<svg width="100" height="100" viewBox="0 0 100 100" fill="none" xmlns="http://www.w3.org/2000/svg">
<circle cx="50" cy="50" r="48.5" stroke="#FF8B00" stroke-width="3"/>
<g clip-path="url(#clip0_2008_325)">
<path d="M27.0009 51.2979L27.336 49.7047C27.8688 47.7978 28.99 46.0599 30.5461 44.8425L30.6746 44.8398C30.9352 45.337 31.5236 45.8342 31.9782 46.1831C34.9799 48.4856 38.8648 48.7481 42.2411 47.0821C41.7425 48.7005 41.8152 50.3017 42.2034 51.929C40.5242 53.6975 39.3472 55.8499 39.19 58.3349C39.0534 60.4864 39.0552 63.635 39.19 65.7882C39.2161 66.2063 39.3508 66.5821 39.3733 66.9948H28.0314C27.9955 66.9948 27.4564 66.6891 27.4016 66.6379C27.2093 66.4589 27.1977 66.1757 27 66.0076V51.2961L27.0009 51.2979Z" fill="#FF8B00"/>
<path d="M60.528 66.9954C60.5316 66.6133 60.6843 66.2572 60.7103 65.8769C60.8595 63.7299 60.8622 60.3126 60.696 58.171C60.5082 55.7498 59.3312 53.6549 57.6979 51.9287C58.086 50.3005 58.1588 48.7002 57.6602 47.0818C58.6404 47.4756 59.617 47.8982 60.6753 48.0555C63.8585 48.5302 67.2591 47.3479 69.2716 44.8359C71.3407 46.2592 72.727 49.0175 72.8995 51.5223C73.2175 56.149 72.6614 61.1235 72.9021 65.7861C72.8752 66.0046 72.6883 66.438 72.5437 66.5935C72.479 66.6636 71.9085 66.9945 71.8689 66.9945H60.5289L60.528 66.9954Z" fill="#FF8B00"/>
<path d="M43.5521 54.5343C43.7408 54.5019 43.9816 54.9748 44.1199 55.1124C47.3004 58.2834 52.2607 58.4264 55.5544 55.3363C55.752 55.1511 56.1869 54.457 56.4034 54.5658C56.5974 54.6638 57.2856 55.8191 57.4069 56.0798C58.6576 58.7725 57.7223 62.8462 58.0197 65.7871C57.9074 66.456 57.4797 66.8858 56.8095 66.9981L43.1766 67.0008C42.5099 66.9451 41.9781 66.4614 41.8792 65.788C42.0275 63.3704 41.687 60.7325 41.8828 58.3419C41.9933 56.9933 42.6106 55.5017 43.5521 54.5352V54.5343Z" fill="#FF8B00"/>
<path d="M37.0216 32.0379C42.9207 31.4319 46.7481 38.2325 43.0447 42.9086C40.3359 46.3295 35.1888 46.3115 32.4701 42.9086C29.1872 38.8007 31.8367 32.571 37.0216 32.0379Z" fill="#FF8B00"/>
<path d="M61.4062 32.0379C67.3053 31.4319 71.1327 38.2325 67.4293 42.9086C64.7205 46.3295 59.5734 46.3115 56.8547 42.9086C53.5718 38.7998 56.2222 32.5701 61.4062 32.0379Z" fill="#FF8B00"/>
<path d="M49.3933 44.1474C56.6069 43.4317 57.4307 54.3842 50.3519 54.8841C43.3531 55.3786 42.4942 44.8316 49.3933 44.1474Z" fill="#FF8B00"/>
</g>
<defs>
<clipPath id="clip0_2008_325">
<rect width="46" height="35" fill="white" transform="translate(27 32)"/>
</clipPath>
</defs>
</svg>
