<svg width="73" height="58" viewBox="0 0 73 58" fill="none" xmlns="http://www.w3.org/2000/svg">
<g clip-path="url(#clip0_2002_266)">
<path d="M57.6767 58.0001C58.4615 57.5222 58.4831 56.9028 58.3844 56.0564C58.2051 54.5109 57.1603 53.1711 55.8375 52.4044C55.5631 52.2451 54.8409 52.0679 54.7049 51.9229C54.605 51.8159 54.3053 50.4856 54.0947 50.0933C53.1101 48.2566 50.8774 47.3329 48.854 47.2021C44.752 46.9382 40.3636 47.4149 36.2315 47.2021C33.4884 47.4018 30.9042 49.0721 30.6322 51.9312C28.9543 52.4281 27.5797 53.5468 27.0814 55.2456C26.7841 56.2609 26.4856 57.4652 27.6471 57.9989H57.6767V58.0001Z" fill="white"/>
<path d="M30.2746 32.5164L32.0583 36.4764C29.7028 38.7161 31.4421 42.4026 34.7653 41.8427C35.0674 41.7916 35.5007 41.5704 35.8113 41.4516C40.3911 39.7064 44.8771 37.2586 49.469 35.4873C51.195 34.5624 51.7414 32.3179 50.4656 30.7855C49.6977 29.863 48.7167 29.6942 47.5732 29.5824L40.8004 14.2336C43.2293 12.0307 41.1458 8.24432 37.9237 9.02657C33.3414 11.2009 28.2211 12.889 23.7219 15.1656C23.1839 15.4379 22.7723 15.615 22.3823 16.0965C20.8922 17.9344 21.7997 20.6152 24.1312 21.0883C24.4802 21.1596 24.934 21.0134 25.1856 21.2333L26.9164 25.1897L1.85787 36.2731C-2.01303 38.8433 0.689137 44.5484 5.16065 43.3287L29.8063 32.5568L30.2746 32.5152V32.5164Z" fill="white"/>
<path d="M64.1625 0.0180419C64.807 1.60191 65.2441 3.20189 66.3409 4.57887C68.023 6.69182 70.3343 7.50664 72.9095 8.30197C73.0315 8.38252 73.0288 8.59873 72.9095 8.67674C71.2364 9.26772 69.5597 9.68404 68.1164 10.7219C65.6633 12.4846 65.3626 14.1677 64.2855 16.6817C64.2002 16.8793 64.1482 17.1099 63.8484 16.942C63.7191 16.8691 62.9436 14.6459 62.782 14.289C61.8001 12.1124 60.1001 10.5251 57.7969 9.60264C56.9065 9.24568 55.9398 9.02438 55.0619 8.64791L55 8.46222L55.1795 8.25958C57.6542 7.5253 59.8667 6.70962 61.5227 4.73573C62.6815 3.35451 63.1473 1.72824 63.79 0.105375C63.8627 -0.0158739 64.0324 -0.0133302 64.1625 0.0188898V0.0180419Z" fill="white"/>
<path d="M57.6224 14C58.2866 16.065 59.1969 17.8871 61.3352 18.9435C62.1256 19.334 62.987 19.4891 63.7849 19.8276C64.1036 19.9632 64.0493 20.0749 63.7462 20.2113C63.2616 20.4287 62.5568 20.5549 62.0418 20.7595C60.2674 21.4655 59.0845 22.5654 58.3207 24.2049C58.1669 24.5358 57.814 25.7448 57.6749 25.9034C57.5948 25.9946 57.5266 26.015 57.4022 25.9903C57.2778 25.9656 56.6661 24.1239 56.515 23.8324C55.9024 22.6523 54.6752 21.497 53.4029 20.9292C52.8833 20.6973 51.3844 20.3579 51.0721 20.1269C50.9928 20.0681 50.9882 19.9811 51.014 19.9078C51.0463 19.8131 52.7525 19.3399 53.0353 19.2257C55.5854 18.1966 56.6339 16.389 57.3626 14.0009H57.6242L57.6224 14Z" fill="white"/>
</g>
<defs>
<clipPath id="clip0_2002_266">
<rect width="73" height="58" fill="white"/>
</clipPath>
</defs>
</svg>
