<svg width="100" height="100" viewBox="0 0 100 100" fill="none" xmlns="http://www.w3.org/2000/svg">
<circle cx="50" cy="50" r="48.5" stroke="#FF8B00" stroke-width="3"/>
<g clip-path="url(#clip0_2008_326)">
<path d="M36.7011 27C37.2105 27.2009 37.6524 27.3612 38.0061 27.807C38.1528 27.9917 38.4984 28.6438 38.4984 28.8429V31.5847H61.4935V28.8429C61.4935 28.6438 61.8391 27.9917 61.9858 27.807C62.3395 27.3612 62.7805 27.2009 63.2908 27H64.279C64.8775 27.2306 65.5201 27.5017 65.8243 28.1052C65.8648 28.1854 66.0754 28.7177 66.0754 28.7528V31.5847H68.5459C69.2398 31.5847 70.6564 32.7313 70.6564 33.4276V44.8893C67.8007 42.7726 64.2403 41.0945 60.6394 40.845C46.773 39.8858 36.7533 53.8839 42.435 66.7048C42.6933 67.2876 43.0821 67.8425 43.2594 68.4423H29.0214C28.9863 68.4423 28.431 68.2559 28.3473 68.2181C27.6453 67.9028 27.2304 67.2633 27 66.5544V33.4726C27.2304 32.7637 27.6444 32.1242 28.3473 31.809C28.431 31.7711 28.9854 31.5847 29.0214 31.5847H33.9165V28.7528C33.9165 28.7177 34.1271 28.1863 34.1676 28.1052C34.4718 27.5017 35.1153 27.2306 35.7129 27H36.7011Z" fill="#FF8B00"/>
<path d="M58.0617 45.4557C69.588 44.5901 77.1381 57.4155 70.5483 67.0325C65.0808 75.0111 53.2413 74.9805 47.8026 66.9956C41.8752 58.2928 47.6235 46.2393 58.0617 45.4557ZM61.4925 56.9354V51.8562C61.4925 51.2374 60.6843 50.3898 60.1164 50.1764C58.5864 49.6017 57.0375 50.4574 56.907 52.1219C56.7216 54.4944 57.0564 57.1029 56.907 59.5007C56.9727 60.5599 57.8061 61.3841 58.8519 61.5093C60.0462 61.6525 62.7417 61.6282 63.9648 61.5228C65.673 61.3751 66.5775 59.7105 65.8836 58.1577C65.673 57.6866 64.8441 56.9345 64.3212 56.9345H61.4916L61.4925 56.9354Z" fill="#FF8B00"/>
</g>
<defs>
<clipPath id="clip0_2008_326">
<rect width="46" height="46" fill="white" transform="translate(27 27)"/>
</clipPath>
</defs>
</svg>
