<svg width="100" height="100" viewBox="0 0 100 100" fill="none" xmlns="http://www.w3.org/2000/svg">
<circle cx="50" cy="50" r="48.5" stroke="#FF8B00" stroke-width="3"/>
<g clip-path="url(#clip0_2008_324)">
<path d="M32.2719 42.2551C32.2719 41.3562 31.5394 40.6274 30.6359 40.6274C29.7324 40.6274 29 41.3562 29 42.2551V69.2956C29 70.1946 29.7324 70.9233 30.6359 70.9233C31.5394 70.9233 32.2719 70.1946 32.2719 69.2956V42.2551Z" fill="#FF8B00"/>
<path d="M55.018 43.1931C55.018 42.2942 54.2855 41.5654 53.382 41.5654C52.4785 41.5654 51.7461 42.2942 51.7461 43.1931V68.3571C51.7461 69.256 52.4785 69.9848 53.382 69.9848C54.2855 69.9848 55.018 69.256 55.018 68.3571V43.1931Z" fill="#FF8B00"/>
<path d="M47.4887 38.1775C47.4887 37.2785 46.7562 36.5498 45.8527 36.5498C44.9492 36.5498 44.2168 37.2785 44.2168 38.1775V73.3722C44.2168 74.2711 44.9492 74.9999 45.8527 74.9999C46.7562 74.9999 47.4887 74.2711 47.4887 73.3722V38.1775Z" fill="#FF8B00"/>
<path d="M39.9594 45.6975C39.9594 44.7986 39.2269 44.0698 38.3234 44.0698C37.4199 44.0698 36.6875 44.7986 36.6875 45.6975V65.8524C36.6875 66.7514 37.4199 67.4801 38.3234 67.4801C39.2269 67.4801 39.9594 66.7514 39.9594 65.8524V45.6975Z" fill="#FF8B00"/>
<path d="M62.5453 49.1301C62.5453 48.2312 61.8129 47.5024 60.9094 47.5024C60.0059 47.5024 59.2734 48.2312 59.2734 49.1301V62.4194C59.2734 63.3183 60.0059 64.047 60.9094 64.047C61.8129 64.047 62.5453 63.3183 62.5453 62.4194V49.1301Z" fill="#FF8B00"/>
<path d="M78.9371 37.2386C73.0731 38.6311 70.7828 40.9088 69.3843 46.7432C69.0466 48.1535 67.0328 48.1535 66.694 46.7432C65.2945 40.9088 63.0053 38.63 57.1412 37.2386C55.7238 36.9026 55.7238 34.8989 57.1412 34.5619C63.0053 33.1694 65.2956 30.8917 66.694 25.0572C67.0318 23.6469 69.0455 23.6469 69.3843 25.0572C70.7839 30.8917 73.0731 33.1704 78.9371 34.5619C80.3546 34.8979 80.3546 36.9015 78.9371 37.2386Z" fill="#FF8B00"/>
</g>
<defs>
<clipPath id="clip0_2008_324">
<rect width="51" height="51" fill="white" transform="translate(29 24)"/>
</clipPath>
</defs>
</svg>
