<svg width="100" height="100" viewBox="0 0 100 100" fill="none" xmlns="http://www.w3.org/2000/svg">
<circle cx="50" cy="50" r="48.5" stroke="#FF8B00" stroke-width="3"/>
<g clip-path="url(#clip0_2008_323)">
<path d="M62.9817 73H61.8748C59.0694 72.2181 56.4233 70.9161 53.8788 69.5294C43.3926 63.8142 35.1323 55.5357 29.7824 44.8642C28.1458 41.6014 26.1388 37.7734 27.3928 34.0729C28.6844 30.2602 34.4721 26.5004 38.0737 29.5542C40.1039 31.2764 44.7472 37.2477 44.9904 39.832C45.2337 42.4163 43.4689 43.0442 41.9462 44.4177C40.0132 46.1619 41.0704 48.3635 42.1496 50.2736C44.0981 53.7201 47.7704 57.0291 51.4527 58.5467C55.1848 60.084 54.8608 57.1556 57.2692 55.7127C60.5512 53.7465 63.8067 56.4957 66.3876 58.374C67.7532 59.3681 70.458 61.2464 71.1768 62.6947C73.029 66.4282 68.1104 71.4109 64.7587 72.5205L62.9817 73.0011V73Z" fill="#FF8B00"/>
<path d="M51.5199 26.0462C52.0153 25.9758 52.7363 26.0011 53.2482 26.0231C64.3361 26.5092 73.774 36.9431 72.9502 48.0017C72.8485 49.3741 71.9749 50.0548 70.607 49.7733C68.9583 49.4346 69.3177 47.7641 69.1518 46.5413C67.8812 37.1542 63.7622 31.9318 54.2346 30.0887C53.267 29.9017 51.2667 29.8116 50.5512 29.3486C49.2563 28.5095 49.9463 26.2716 51.5199 26.0473V26.0462Z" fill="#FF8B00"/>
<path d="M66.1834 48.2896C65.6338 48.7537 64.5314 48.7867 63.9 48.4612C62.939 47.9663 63.1215 46.7489 62.9722 45.8978C62.0289 40.5356 60.4454 37.9041 54.995 36.3975C54.0506 36.1358 52.006 35.9158 51.3271 35.4572C50.156 34.6655 50.5154 32.5496 51.8357 32.1406C52.706 31.8711 54.4708 32.2153 55.4019 32.4144C60.7374 33.557 65.4923 37.9569 66.5395 43.3586C66.7595 44.4924 67.1189 47.4989 66.1834 48.2885V48.2896Z" fill="#FF8B00"/>
<path d="M55.9384 43.2126C54.9277 42.1459 53.802 42.2493 52.5857 41.8215C50.4924 41.0869 51.168 38.4399 53.2503 38.2266C57.1703 37.8252 61.7007 42.6518 60.7431 46.504C60.2864 48.3405 57.8913 48.489 57.2355 46.7394C56.7667 45.4879 57.0288 44.3629 55.9384 43.2126Z" fill="#FF8B00"/>
</g>
<defs>
<clipPath id="clip0_2008_323">
<rect width="46" height="47" fill="white" transform="translate(27 26)"/>
</clipPath>
</defs>
</svg>
