<svg width="140" height="140" viewBox="0 0 140 140" fill="none" xmlns="http://www.w3.org/2000/svg">
<circle cx="70" cy="70" r="70" fill="#E3EDF9"/>
<g clip-path="url(#clip0_2001_531)">
<path d="M57.6619 29.0773C71.2871 30.2758 79.7692 45.2454 74.4255 57.7793C67.7169 73.5375 45.7407 74.6045 37.49 59.5886C30.5347 46.9233 38.878 30.3454 53.3591 29.0773C54.5004 28.9768 56.5206 28.9768 57.6619 29.0773ZM57.1529 35.8121C56.9833 35.5415 54.3693 35.5183 54.0531 35.7657C53.5288 36.1832 54.0763 38.0467 53.683 38.7117C51.8401 39.5699 49.9432 40.2349 49.0179 42.2221C47.4911 45.5237 48.7866 48.3615 51.7553 50.0857C53.5288 51.1141 58.3173 52.0497 57.7775 54.6787C57.284 57.0911 53.5673 56.5267 51.8786 56.0318C50.961 55.7612 50.1899 55.2586 49.3032 55.1349C48.9793 55.2431 48.1157 58.3283 48.3239 58.7922C48.4781 59.1401 49.6656 59.6195 50.0743 59.7587C50.7528 59.9907 52.9736 60.2845 53.282 60.5397C53.9066 61.0577 53.0353 63.0836 53.8989 63.5939C54.323 63.8491 56.4821 63.8645 56.8522 63.5011C57.5076 62.8671 56.9139 61.0964 57.2532 60.385C57.4228 60.0371 59.3737 59.4417 59.9366 59.0783C63.2137 56.9906 63.661 52.4054 61.0007 49.5909C59.258 47.7429 56.5361 47.4259 54.5698 46.1346C52.6035 44.8433 52.9736 42.9566 55.2483 42.5623C56.9679 42.2607 58.8879 42.9025 60.4455 43.6061C61.1318 43.5984 61.9877 40.4901 61.7178 39.9334C61.3169 39.1137 58.1091 38.9591 57.5616 38.5106C57.1452 38.1704 57.4074 36.4384 57.1452 35.8121H57.1529Z" fill="#132956"/>
<path d="M64.5167 109.67C64.4319 110.08 63.5066 110.93 63.0054 110.869C59.4969 110.552 55.2636 111.286 51.8399 110.869C49.8043 110.621 50.344 108.626 50.1667 107.273C49.2722 100.353 45.2394 98.5589 42.1704 93.0768C37.9371 85.507 36.7342 77.4346 40.4432 69.3235C52.6265 78.7336 70.6315 74.651 77.5637 60.9109C80.2394 55.6143 78.9362 52.0961 85.452 49.3203C86.9093 48.7017 90.4178 47.4491 91.6207 48.7868C92.9007 50.2172 91.2815 51.7946 90.7494 53.1864C90.0785 54.9261 89.693 57.5241 90.387 59.2948C90.5181 59.635 93.3788 62.1403 93.934 62.7666C96.2396 65.3723 98.1211 68.5116 99.1312 71.8596C101.259 71.6895 104.529 71.9524 104.86 74.6664C105.038 76.1433 105.092 82.9012 104.822 84.2157C104.321 86.69 101.375 86.6514 99.4319 86.6436C98.1442 90.3783 96.1548 93.9042 93.4636 96.796C90.7725 99.6878 87.8347 101.281 87.4799 105.812C87.3489 107.443 88.1739 110.575 85.8144 110.853C82.383 111.263 78.1651 110.536 74.6489 110.853C74.2017 110.985 73.1376 109.941 73.1376 109.655V106.539H64.5322C64.4011 107.443 64.7095 108.827 64.5322 109.655L64.5167 109.67ZM87.5879 67.2976C84.4573 67.8312 85.0125 73.0813 88.6289 72.4937C91.9369 71.9602 91.3046 66.6636 87.5879 67.2976Z" fill="#132956"/>
</g>
<defs>
<clipPath id="clip0_2001_531">
<rect width="70" height="82" fill="white" transform="translate(35 29)"/>
</clipPath>
</defs>
</svg>
