<svg width="65" height="63" viewBox="0 0 65 63" fill="none" xmlns="http://www.w3.org/2000/svg">
<g clip-path="url(#clip0_2002_275)">
<path d="M52.4327 -0.000299494C54.4193 0.493022 56.0449 1.59665 56.8035 3.56148C56.8991 3.80955 57.1997 4.66511 57.1997 4.85258V30.3784H62.037C62.0904 30.3784 62.9137 30.7097 63.0443 30.7745C65.2669 31.8894 65.614 34.7549 64.0011 36.5675L38.136 60.6867C34.899 63.6734 30.597 63.7679 27.197 60.9672L1.18578 36.8522L0 34.7366V33.3299C0.421485 32.2488 0.924457 31.3158 2.00767 30.7731C2.13833 30.7069 2.96023 30.377 3.01502 30.377H7.85226V4.85117C7.85226 3.61081 9.39068 1.35986 10.5624 0.818615L12.6193 -0.00170898H52.4341L52.4327 -0.000299494ZM34.7669 15.7522C35.4497 11.2404 29.5981 11.2432 30.2823 15.7522C24.0612 15.7818 21.0869 23.6665 26.0098 27.7018C28.5022 29.7442 29.9592 28.9563 32.7353 29.2523C35.312 29.5285 35.4595 33.664 33.6036 34.6252C32.3153 35.2919 28.2915 34.6577 26.5788 34.8902C24.567 35.1651 23.9614 37.9094 25.6614 39.02C26.3962 39.4993 27.2069 39.3738 28.0386 39.378C27.353 43.8842 33.206 43.8926 32.5232 39.378C41.2802 39.3231 41.6568 25.434 33.0191 24.7475C32.075 24.6728 31.0002 24.8518 30.0701 24.7532C27.3783 24.4656 27.294 20.505 30.205 20.247C31.8081 20.1047 35.9105 20.6234 37.0598 19.951C38.4619 19.1307 38.497 16.9953 37.1441 16.1116C36.4093 15.6324 35.5986 15.7578 34.7669 15.7536V15.7522Z" fill="white"/>
</g>
<defs>
<clipPath id="clip0_2002_275">
<rect width="65" height="63" fill="white"/>
</clipPath>
</defs>
</svg>
