<svg width="140" height="140" viewBox="0 0 140 140" fill="none" xmlns="http://www.w3.org/2000/svg">
<circle cx="70" cy="70" r="70" fill="#E3EDF9"/>
<g clip-path="url(#clip0_2001_529)">
<path d="M91.1361 87.0456C95.9744 86.511 99.7375 82.3871 99.7375 77.362C99.7375 71.978 95.4141 67.6173 90.0761 67.6173C84.7381 67.6173 80.4146 71.978 80.4146 77.362C80.4146 82.3947 84.1929 86.534 89.0463 87.0456C81.3308 87.29 75.1523 93.6516 75.1523 101.487C75.1523 103.419 76.7045 104.985 78.6202 104.985H101.403C103.387 104.985 104.992 103.366 104.992 101.365C104.992 93.5676 98.8138 87.2289 91.1285 87.038L91.1361 87.0456Z" fill="#132956"/>
<path d="M55.2082 37.4285C55.2082 36.0844 54.133 35 52.8004 35C51.4678 35 50.3926 36.0844 50.3926 37.4285V39.964H55.2082V37.4285Z" fill="#132956"/>
<path d="M80.5738 86.2132C78.3553 83.9145 76.9849 80.7833 76.9849 77.3314C76.9849 70.2978 82.656 64.5701 89.6371 64.5701C92.7415 64.5701 95.5884 65.708 97.7918 67.5944V52.2365C97.7918 45.4626 92.3478 39.964 85.6241 39.964H82.6863V47.1809C82.6863 48.525 81.6111 49.6094 80.2785 49.6094C78.9459 49.6094 77.8707 48.525 77.8707 47.1809V39.964H55.2163V47.1809C55.2163 48.525 54.1412 49.6094 52.8085 49.6094C51.4759 49.6094 50.4008 48.525 50.4008 47.1809V39.964H47.1677C40.444 39.964 35 45.4626 35 52.2365V91.0244C35 97.7984 40.444 103.297 47.1677 103.297H71.9346C71.7756 102.724 71.6771 102.121 71.6771 101.502C71.6771 94.9422 75.2661 89.2221 80.5663 86.2208L80.5738 86.2132ZM50.325 61.1412H60.3499C61.6598 61.1412 62.7199 62.2103 62.7199 63.5315C62.7199 64.8527 61.6598 65.9219 60.3499 65.9219H50.325C49.0151 65.9219 47.9551 64.8527 47.9551 63.5315C47.9551 62.2103 49.0151 61.1412 50.325 61.1412ZM66.5133 78.897H50.325C49.0151 78.897 47.9551 77.8278 47.9551 76.5066C47.9551 75.1855 49.0151 74.1163 50.325 74.1163H66.5133C67.8231 74.1163 68.8832 75.1855 68.8832 76.5066C68.8832 77.8278 67.8231 78.897 66.5133 78.897Z" fill="#132956"/>
<path d="M82.6789 37.4285C82.6789 36.0844 81.6037 35 80.2711 35C78.9385 35 77.8633 36.0844 77.8633 37.4285V39.964H82.6789V37.4285Z" fill="#132956"/>
</g>
<defs>
<clipPath id="clip0_2001_529">
<rect width="70" height="70" fill="white" transform="translate(35 35)"/>
</clipPath>
</defs>
</svg>
