<svg width="67" height="67" viewBox="0 0 67 67" fill="none" xmlns="http://www.w3.org/2000/svg">
<g clip-path="url(#clip0_2002_271)">
<path d="M35.6049 0L39.0336 0.430311C45.8437 1.61498 52.3221 4.84494 57.1236 9.81713C57.3229 9.81713 59.4941 7.20771 59.9399 7.00174C60.3162 6.82857 61.4281 7.24707 61.5055 7.6577L62.2213 20.1603L61.5435 20.7901L48.8345 20.0134C48.7374 19.4991 48.251 18.9796 48.4909 18.4627C48.7597 17.8842 50.5796 16.5932 51.049 15.911C51.1434 15.7733 51.2116 15.7706 51.1146 15.5804C50.9638 15.2879 49.195 13.8631 48.8043 13.564C35.2679 3.20634 15.4984 9.09033 9.83286 25.0722C3.61012 42.6284 17.8991 60.5296 36.3234 58.5276C48.8908 57.1619 58.7166 46.1929 58.6275 33.5197H66.9992C67.0333 41.2167 64.2707 48.8797 59.4089 54.7938C40.8666 77.3485 4.06902 66.8465 0.304696 38.0183C0.202426 37.2311 0.224716 36.3692 0.0241094 35.6148C0.0831113 34.2294 -0.0571822 32.806 0.0241094 31.4245C0.993053 14.8589 14.8742 0.969512 31.4197 0H35.6062H35.6049Z" fill="white"/>
<path d="M25.1411 39.4116H32.3354V43.3395H20.5625V40.1318C20.5625 39.4352 21.5904 37.5093 22.0651 36.9229C24.0187 34.5089 27.4644 34.1822 28.2406 30.7962C28.6418 29.0474 28.0033 27.2199 25.8897 27.658C25.4492 27.7486 24.4868 28.5934 24.4868 29.0028V31.5558H20.5625V28.4793C20.5625 26.2845 23.6463 23.8889 25.7311 23.7026C32.4573 23.1017 34.0267 30.8709 30.2375 35.4155C28.7703 37.1747 26.6987 37.8464 25.1397 39.4129L25.1411 39.4116Z" fill="white"/>
<path d="M34.168 36.5319L35.9983 23.4363L39.9239 23.9624L38.7465 32.6027H42.2775V26.9732H46.2017V32.6027H48.2957V36.5319H46.2017V43.3395H42.2775V36.5319H34.168Z" fill="white"/>
</g>
<defs>
<clipPath id="clip0_2002_271">
<rect width="67" height="67" fill="white"/>
</clipPath>
</defs>
</svg>
