<svg width="100" height="100" viewBox="0 0 100 100" fill="none" xmlns="http://www.w3.org/2000/svg">
<circle cx="50" cy="50" r="48.5" stroke="#FF8B00" stroke-width="3"/>
<path d="M70.2501 32.002H29.7501C29.1533 32.002 28.581 32.239 28.1591 32.661C27.7371 33.0829 27.5001 33.6552 27.5001 34.252V65.752C27.5001 66.3487 27.7371 66.921 28.1591 67.3429C28.581 67.7649 29.1533 68.002 29.7501 68.002H70.2501C70.8468 68.002 71.4191 67.7649 71.841 67.3429C72.263 66.921 72.5001 66.3487 72.5001 65.752V34.252C72.5001 33.6552 72.263 33.0829 71.841 32.661C71.4191 32.239 70.8468 32.002 70.2501 32.002ZM68.0001 56.752C66.2098 56.752 64.493 57.4631 63.2271 58.729C61.9612 59.9949 61.2501 61.7117 61.2501 63.502H38.7501C38.7501 61.7117 38.0389 59.9949 36.773 58.729C35.5072 57.4631 33.7903 56.752 32.0001 56.752V43.252C33.7903 43.252 35.5072 42.5408 36.773 41.2749C38.0389 40.0091 38.7501 38.2922 38.7501 36.502H61.2501C61.2501 38.2922 61.9612 40.0091 63.2271 41.2749C64.493 42.5408 66.2098 43.252 68.0001 43.252V56.752Z" fill="#FF8B00"/>
<path d="M50.0001 40.998C45.0366 40.998 41.0001 45.0345 41.0001 49.998C41.0001 54.9615 45.0366 58.998 50.0001 58.998C54.9636 58.998 59.0001 54.9615 59.0001 49.998C59.0001 45.0345 54.9636 40.998 50.0001 40.998ZM50.0001 54.498C47.5183 54.498 45.5001 52.4798 45.5001 49.998C45.5001 47.5163 47.5183 45.498 50.0001 45.498C52.4818 45.498 54.5001 47.5163 54.5001 49.998C54.5001 52.4798 52.4818 54.498 50.0001 54.498Z" fill="#FF8B00"/>
</svg>
