<svg width="141" height="140" viewBox="0 0 141 140" fill="none" xmlns="http://www.w3.org/2000/svg">
<circle cx="70.5" cy="70" r="70" fill="#E3EDF9"/>
<path d="M112.931 42.8697L94.844 60.7486C94.844 60.7486 89.4387 60.7486 84.0335 55.3434C78.6282 49.9381 78.6282 44.5328 78.6282 44.5328L96.7151 26.446C86.5282 23.9513 74.2624 27.2776 66.7782 34.7618C55.5519 45.9881 65.5309 60.3328 62.6203 63.2434C46.8203 79.6671 30.6046 92.1407 30.1888 92.7644C25.4072 97.546 25.1993 105.238 29.773 109.812C34.3467 114.385 42.0388 114.178 46.8203 109.396C47.444 108.772 60.7493 91.9328 76.3414 76.3407C79.2519 73.4302 92.973 84.0328 104.615 72.5986C111.891 65.1144 115.426 53.0565 112.931 42.8697ZM39.544 105.446C36.6335 105.446 34.3467 103.159 34.3467 100.249C34.3467 97.1302 36.6335 94.8434 39.544 94.8434C42.4545 94.8434 44.7414 97.1302 44.7414 100.041C44.7414 102.951 42.4545 105.446 39.544 105.446Z" fill="#132956"/>
</svg>
