<svg width="141" height="140" viewBox="0 0 141 140" fill="none" xmlns="http://www.w3.org/2000/svg">
<circle cx="70.5" cy="70" r="70" fill="#E3EDF9"/>
<path d="M105.475 51.7893C107.732 51.7885 109.906 52.6411 111.561 54.176C113.216 55.7108 114.23 57.8146 114.4 60.0656L114.422 60.7366V101C114.423 103.257 113.57 105.431 112.035 107.086C110.5 108.742 108.397 109.755 106.146 109.925L105.475 109.947H87.5798C85.3225 109.948 83.1483 109.095 81.4932 107.56C79.838 106.026 78.8241 103.922 78.6548 101.671L78.6324 101V60.7366C78.6317 58.4793 79.4843 56.3051 81.0191 54.65C82.554 52.9948 84.6578 51.9809 86.9088 51.8116L87.5798 51.7893H105.475ZM92.0535 33.8945C94.4265 33.8945 96.7023 34.8372 98.3802 36.5152C100.058 38.1931 101.001 40.4689 101.001 42.8419H83.1061C79.5466 42.8419 76.1329 44.2559 73.616 46.7728C71.0991 49.2898 69.6851 52.7035 69.6851 56.2629V105.473H33.8956C31.5226 105.473 29.2468 104.531 27.5689 102.853C25.8909 101.175 24.9482 98.8991 24.9482 96.5261V42.8419C24.9482 40.4689 25.8909 38.1931 27.5689 36.5152C29.2468 34.8372 31.5226 33.8945 33.8956 33.8945H92.0535Z" fill="#132956"/>
</svg>
