<svg width="40" height="40" viewBox="0 0 40 40" fill="none" xmlns="http://www.w3.org/2000/svg">
<rect width="40" height="40" rx="20" fill="#132956"/>
<path d="M20.2882 9.01833C21.489 9 22.6807 9.00917 23.8723 9C23.9457 10.4025 24.4498 11.8325 25.4765 12.8225C26.5031 13.8399 27.9514 14.3074 29.3631 14.4633V18.1574C28.0431 18.1116 26.714 17.8366 25.5131 17.2682C24.9906 17.0299 24.5048 16.7274 24.0282 16.4157C24.019 19.0924 24.0373 21.769 24.0098 24.4365C23.9365 25.7198 23.5148 26.9939 22.7723 28.0481C21.5715 29.8081 19.4907 30.9539 17.3549 30.9906C16.0441 31.0639 14.7333 30.7064 13.615 30.0464C11.7633 28.9556 10.4617 26.9573 10.2692 24.8123C10.2508 24.354 10.2417 23.8956 10.26 23.4465C10.425 21.7048 11.2866 20.0365 12.625 18.8999C14.1466 17.5799 16.2733 16.9474 18.2624 17.3232C18.2807 18.6799 18.2257 20.0365 18.2257 21.3932C17.3182 21.0998 16.2549 21.1823 15.4574 21.7323C14.8799 22.1082 14.4399 22.6857 14.2108 23.3365C14.0183 23.804 14.0733 24.3173 14.0824 24.8123C14.3024 26.3156 15.7508 27.5806 17.2907 27.4431C18.3174 27.4339 19.2982 26.8381 19.8299 25.9673C20.004 25.6648 20.1965 25.3531 20.2057 24.9956C20.2974 23.3548 20.2607 21.7232 20.2699 20.0824C20.279 16.3882 20.2607 12.7033 20.2882 9.01833Z" fill="white"/>
</svg>
