<svg width="40" height="40" viewBox="0 0 40 40" fill="none" xmlns="http://www.w3.org/2000/svg">
<rect width="40" height="40" rx="20" fill="#E3EDF9"/>
<path fill-rule="evenodd" clip-rule="evenodd" d="M24.4017 29.3348C23.0554 29.2853 19.24 28.758 15.2442 24.7631C11.2493 20.7673 10.723 16.9528 10.6725 15.6056C10.5977 13.5526 12.1702 11.5584 13.9868 10.7796C14.2055 10.6851 14.4451 10.6492 14.6819 10.6752C14.9187 10.7013 15.1447 10.7885 15.3377 10.9282C16.8336 12.0184 17.8657 13.6675 18.752 14.9643C18.947 15.2492 19.0304 15.5958 18.9863 15.9383C18.9421 16.2807 18.7736 16.5949 18.5127 16.821L16.6887 18.1757C16.6005 18.2393 16.5385 18.3328 16.5141 18.4387C16.4897 18.5446 16.5045 18.6558 16.5559 18.7516C16.9691 19.5023 17.704 20.6205 18.5454 21.4619C19.3868 22.3033 20.5583 23.0868 21.3614 23.5468C21.462 23.6033 21.5806 23.6191 21.6926 23.5909C21.8045 23.5628 21.9015 23.4928 21.9634 23.3953L23.1508 21.5881C23.3691 21.2982 23.6911 21.1039 24.0494 21.0461C24.4077 20.9882 24.7745 21.0712 25.073 21.2777C26.3884 22.1883 27.9235 23.2027 29.0473 24.6416C29.1984 24.8359 29.2945 25.0673 29.3256 25.3116C29.3567 25.5558 29.3216 25.8039 29.224 26.0299C28.4415 27.8558 26.4613 29.4106 24.4017 29.3348Z" fill="#132956"/>
</svg>
