<svg width="40" height="40" viewBox="0 0 40 40" fill="none" xmlns="http://www.w3.org/2000/svg">
<rect width="40" height="40" rx="20" fill="#E3EDF9"/>
<path d="M30.8902 15.2607V25.7774C30.8902 26.6276 30.5654 27.4458 29.9821 28.0644C29.3988 28.683 28.6012 29.0553 27.7524 29.1052L27.5569 29.1107H12.0013C11.1511 29.1108 10.333 28.7859 9.71435 28.2027C9.09574 27.6194 8.7234 26.8217 8.67352 25.973L8.66797 25.7774V15.2607L19.1624 22.2574L19.2913 22.3307C19.4432 22.405 19.61 22.4435 19.7791 22.4435C19.9481 22.4435 20.115 22.405 20.2669 22.3307L20.3957 22.2574L30.8902 15.2607Z" fill="#132956"/>
<path d="M27.5566 11.334C28.7566 11.334 29.8088 11.9673 30.3954 12.9195L19.7788 19.9973L9.16211 12.9195C9.44077 12.4671 9.82354 12.0879 10.2785 11.8134C10.7335 11.539 11.2475 11.3772 11.7777 11.3418L12.001 11.334H27.5566Z" fill="#132956"/>
</svg>
