<svg width="40" height="40" viewBox="0 0 40 40" fill="none" xmlns="http://www.w3.org/2000/svg">
<rect width="40" height="40" rx="20" fill="#132956"/>
<path d="M14.222 11.112C14.2217 11.6719 13.999 12.2087 13.6029 12.6044C13.2069 13.0001 12.6698 13.2223 12.1099 13.222C11.5501 13.2217 11.0132 12.999 10.6175 12.6029C10.2219 12.2069 9.99972 11.6698 10 11.1099C10.0003 10.5501 10.223 10.0132 10.619 9.61755C11.0151 9.22186 11.5522 8.99972 12.112 9C12.6719 9.00028 13.2087 9.22296 13.6044 9.61904C14.0001 10.0151 14.2223 10.5522 14.222 11.112ZM14.2853 14.7852H10.0633V28H14.2853V14.7852ZM20.9561 14.7852H16.7552V28H20.9138V21.0654C20.9138 17.2023 25.9486 16.8434 25.9486 21.0654V28H30.1178V19.6299C30.1178 13.1175 22.666 13.3603 20.9138 16.5584L20.9561 14.7852Z" fill="white"/>
</svg>
