<svg width="100" height="100" viewBox="0 0 100 100" fill="none" xmlns="http://www.w3.org/2000/svg">
<circle cx="50" cy="50" r="50" fill="#FF8B00"/>
<path d="M50.1875 62.0029H48.7344V54.2686H50.1875V62.0029ZM50.2344 46.5342H48.7813V38.7998H50.2344V46.5342ZM50.2812 31.0654H48.8281V23.3311H50.2812V31.0654Z" fill="white"/>
<path d="M67.3438 32.7061C69.8549 32.7061 71.8906 30.6703 71.8906 28.1592C71.8906 25.648 69.8549 23.6123 67.3438 23.6123C64.8326 23.6123 62.7969 25.648 62.7969 28.1592C62.7969 30.6703 64.8326 32.7061 67.3438 32.7061Z" fill="white"/>
<path d="M73.0625 33.8779H61.7188C58.5781 33.8779 56.0469 36.4092 56.0469 39.5498V53.4248C56.0469 54.5029 56.9375 55.4404 58.0625 55.4404C59.1875 55.4404 60.0781 54.5498 60.0781 53.4248V40.7217C60.0781 40.3936 60.3594 40.1592 60.6406 40.1592C60.9688 40.1592 61.2031 40.4404 61.2031 40.7217V75.1748C61.2031 76.8623 62.4688 78.2685 64.0625 78.2685C65.6563 78.2685 66.9219 76.8623 66.9219 75.1748V55.5342C66.9219 55.2061 67.2031 54.9717 67.4844 54.9717C67.8125 54.9717 68.0469 55.2529 68.0469 55.5342V75.1748C68.0469 76.8623 69.3125 78.2685 70.9063 78.2685C72.5 78.2685 73.7656 76.8623 73.7656 75.1748V40.7217C73.7656 40.3936 74.0469 40.1592 74.3281 40.1592C74.6563 40.1592 74.8906 40.4404 74.8906 40.7217V53.5185C74.8906 54.5967 75.7813 55.5342 76.9063 55.5342C78.0313 55.5342 78.9219 54.6435 78.9219 53.5185V39.5498C78.7344 36.4092 76.1563 33.8779 73.0625 33.8779Z" fill="white"/>
<path d="M32.75 32.7061C35.2612 32.7061 37.2969 30.6703 37.2969 28.1592C37.2969 25.648 35.2612 23.6123 32.75 23.6123C30.2388 23.6123 28.2031 25.648 28.2031 28.1592C28.2031 30.6703 30.2388 32.7061 32.75 32.7061Z" fill="white"/>
<path d="M38.4688 33.8779H27.0781C23.9375 33.8779 21.4062 36.4092 21.4062 39.5498V53.4248C21.4062 54.5029 22.2969 55.4404 23.4219 55.4404C24.5469 55.4404 25.4375 54.5498 25.4375 53.4248V40.7217C25.4375 40.3936 25.7188 40.1592 26 40.1592C26.3281 40.1592 26.5625 40.4404 26.5625 40.7217V75.1748C26.5625 76.8623 27.8281 78.2685 29.4219 78.2685C31.0156 78.2685 32.2812 76.8623 32.2812 75.1748V55.5342C32.2812 55.2061 32.5625 54.9717 32.8438 54.9717C33.125 54.9717 33.4062 55.2529 33.4062 55.5342V75.1748C33.4062 76.8623 34.6719 78.2685 36.2656 78.2685C37.8594 78.2685 39.125 76.8623 39.125 75.1748V40.7217C39.125 40.3936 39.4062 40.1592 39.6875 40.1592C39.9688 40.1592 40.25 40.4404 40.25 40.7217V53.5185C40.25 54.5967 41.1406 55.5342 42.2656 55.5342C43.3906 55.5342 44.2812 54.6435 44.2812 53.5185V39.5498C44.1406 36.4092 41.5625 33.8779 38.4688 33.8779Z" fill="white"/>
<path d="M54.9688 74.5638C54.6406 73.345 53 72.3607 51.5938 73.6732L50.2813 68.8919L53.1875 60.7357C53.0938 60.6888 52.9531 60.7357 52.8594 60.9232L49.5781 66.9232L48.6406 65.2357V68.2357L48.875 68.8919L47.5625 73.6732C46.1563 72.3607 44.5156 73.345 44.1875 74.5638C43.9063 75.6419 44.4219 76.72 45.6875 77.0482C46.6719 77.3294 47.7969 76.72 48.125 75.595L49.3906 70.8607H49.8125L51.0781 75.595C51.4063 76.72 52.5313 77.2825 53.5156 77.0482C54.7344 76.72 55.2969 75.6419 54.9688 74.5638ZM47.0938 75.3138C46.9531 75.8294 46.3906 76.1575 45.875 76.0169C45.3594 75.8763 45.0313 75.3138 45.1719 74.7982C45.3125 74.2825 45.875 73.9544 46.3906 74.095C46.9063 74.2357 47.2344 74.7982 47.0938 75.3138ZM49.5781 69.3138C49.3438 69.3138 49.1563 69.1263 49.1563 68.8919C49.1563 68.6575 49.3438 68.47 49.5781 68.47C49.8125 68.47 50 68.6575 50 68.8919C50 69.1732 49.8125 69.3138 49.5781 69.3138ZM53.3281 76.0169C52.8125 76.1575 52.25 75.8294 52.1094 75.3138C51.9688 74.7982 52.2969 74.2357 52.8125 74.095C53.3281 73.9544 53.8906 74.2825 54.0313 74.7982C54.1719 75.3138 53.8906 75.8763 53.3281 76.0169Z" fill="white"/>
</svg>
