<svg width="141" height="140" viewBox="0 0 141 140" fill="none" xmlns="http://www.w3.org/2000/svg">
<circle cx="70.5" cy="70" r="70" fill="#E3EDF9"/>
<path d="M69.7365 25.6973C67.8101 25.6973 65.9025 26.0767 64.1227 26.8139C62.343 27.5511 60.7258 28.6317 59.3636 29.9939C58.0014 31.3561 56.9209 32.9732 56.1837 34.753C55.4464 36.5328 55.067 38.4404 55.067 40.3668C55.067 42.2932 55.4464 44.2008 56.1837 45.9806C56.9209 47.7604 58.0014 49.3775 59.3636 50.7397C60.7258 52.1019 62.343 53.1825 64.1227 53.9197C65.9025 54.6569 67.8101 55.0363 69.7365 55.0363C73.6271 55.0363 77.3584 53.4908 80.1095 50.7397C82.8605 47.9886 84.4061 44.2574 84.4061 40.3668C84.4061 36.4762 82.8605 32.7449 80.1095 29.9939C77.3584 27.2428 73.6271 25.6973 69.7365 25.6973ZM102.776 33.0247C99.8551 33.0247 97.0539 34.185 94.9885 36.2504C92.9232 38.3157 91.7628 41.117 91.7628 44.0378C91.7628 46.9587 92.9232 49.76 94.9885 51.8253C97.0539 53.8907 99.8551 55.051 102.776 55.051C105.697 55.051 108.498 53.8907 110.563 51.8253C112.629 49.76 113.789 46.9587 113.789 44.0378C113.789 41.117 112.629 38.3157 110.563 36.2504C108.498 34.185 105.697 33.0247 102.776 33.0247ZM36.6971 33.0247C33.7762 33.0247 30.975 34.185 28.9096 36.2504C26.8442 38.3157 25.6839 41.117 25.6839 44.0378C25.6839 46.9587 26.8442 49.76 28.9096 51.8253C30.975 53.8907 33.7762 55.051 36.6971 55.051C39.6179 55.051 42.4192 53.8907 44.4845 51.8253C46.5499 49.76 47.7102 46.9587 47.7102 44.0378C47.7102 41.117 46.5499 38.3157 44.4845 36.2504C42.4192 34.185 39.6179 33.0247 36.6971 33.0247ZM47.7102 69.6838C47.7238 67.7455 48.5033 65.8912 49.8788 64.5254C51.2542 63.1596 53.1139 62.3931 55.0523 62.3931H84.4207C86.368 62.3931 88.2355 63.1667 89.6124 64.5436C90.9893 65.9205 91.7628 67.788 91.7628 69.7352V91.7616C91.7648 94.0724 91.403 96.3692 90.6909 98.5677C89.0652 103.551 85.7162 107.791 81.2454 110.527C76.7746 113.263 71.4748 114.316 66.2977 113.496C61.1206 112.676 56.4053 110.038 52.9986 106.054C49.5919 102.071 47.7168 97.0032 47.7102 91.7616V69.6838ZM40.3681 69.7352C40.3681 67.0554 41.0803 64.5517 42.3358 62.3931H25.6839C23.7367 62.3931 21.8692 63.1667 20.4923 64.5436C19.1153 65.9205 18.3418 67.788 18.3418 69.7352V88.0905C18.3408 91.0957 19.0777 94.0551 20.4877 96.7089C21.8977 99.3628 23.9378 101.63 26.4287 103.311C28.9196 104.992 31.7852 106.036 34.7738 106.351C37.7625 106.666 40.7827 106.242 43.5693 105.117C41.4606 100.978 40.3635 96.3989 40.3681 91.7542V69.7352ZM99.105 69.7352V91.7616C99.105 96.5706 97.9522 101.108 95.9038 105.117C98.6904 106.242 101.711 106.666 104.699 106.351C107.688 106.036 110.553 104.992 113.044 103.311C115.535 101.63 117.575 99.3628 118.985 96.7089C120.395 94.0551 121.132 91.0957 121.131 88.0905V69.7352C121.131 67.788 120.358 65.9205 118.981 64.5436C117.604 63.1667 115.736 62.3931 113.789 62.3931H97.1373C98.3854 64.5517 99.105 67.0554 99.105 69.7352Z" fill="#132956"/>
</svg>
