<svg width="141" height="140" viewBox="0 0 141 140" fill="none" xmlns="http://www.w3.org/2000/svg">
<circle cx="70.5" cy="70" r="70" fill="#E3EDF9"/>
<path d="M36.1712 114.09H50.7173V99.5632H36.1712V114.09ZM24.0133 87.4053V99.5632H36.1712V87.4053H24.0133ZM116.026 53.9119C111.487 39.2672 99.7633 27.6027 85.1186 23.004C51.5462 12.5238 20.5791 37.4909 20.5791 69.504H39.487C39.487 49.4119 59.4212 33.879 80.5594 41.5369C88.3949 44.3593 94.6712 50.6356 97.4936 58.4514C105.211 79.5698 89.6581 99.4645 69.5857 99.504V99.5632H69.5265V118.471C101.619 118.471 126.526 87.5238 116.026 53.9119ZM69.5857 99.504V80.6948H50.7173V99.5632H69.5265V99.504H69.5857Z" fill="#132956"/>
</svg>
