<svg width="100" height="100" viewBox="0 0 100 100" fill="none" xmlns="http://www.w3.org/2000/svg">
<circle cx="50" cy="50" r="50" fill="#FF8B00"/>
<path d="M32.8774 29.9943C35.6383 29.9943 37.8664 27.7662 37.8664 25.0053C37.9149 22.1959 35.6383 19.9678 32.8774 19.9678C30.9883 19.9678 29.3899 20.985 28.518 22.4865C28.4211 22.6803 28.2758 22.8256 28.1305 22.9709C27.1617 23.9396 25.5633 23.9396 24.5946 22.9709C24.4492 22.8256 24.3039 22.6803 24.2071 22.4865C24.8852 26.749 28.518 29.9943 32.8774 29.9943Z" fill="white"/>
<path d="M43.582 54.9863C44.793 54.841 45.6648 53.7754 45.5195 52.5645L43.6305 36.6285C43.1945 33.577 40.5789 31.252 37.4305 31.252H27.8398C24.6914 31.252 22.0758 33.577 21.6398 36.6285L19.7508 52.516C19.6055 53.727 20.4773 54.7926 21.6883 54.9379C22.8992 55.0832 23.9648 54.2113 24.1102 53.0004L25.9023 38.2754C25.9508 37.9848 26.193 37.7426 26.532 37.7426C26.8711 37.7426 27.1617 38.0332 27.1617 38.3723C27.1617 38.4207 27.1617 38.4691 27.1617 38.4691C27.1617 38.4691 25.9023 48.9316 25.8539 49.1738C25.8055 49.4645 25.8055 49.7551 25.8055 49.9973V76.6379C25.8055 78.527 27.2102 80.0285 28.9539 80.0285C30.6977 80.0285 32.1023 78.527 32.1023 76.6379V54.9863C32.1023 54.6473 32.393 54.3566 32.732 54.3566C33.0711 54.3566 33.3617 54.6473 33.3617 54.9863V76.6379C33.3617 78.527 34.7664 80.0285 36.5102 80.0285C38.2539 80.0285 39.6586 78.527 39.6586 76.6379V49.9973C39.6586 49.7551 39.6586 49.416 39.6102 49.1738C39.5617 48.9801 38.3023 38.4691 38.3023 38.4691C38.3023 38.4691 38.3023 38.4207 38.3023 38.3723C38.3023 38.0332 38.593 37.7426 38.932 37.7426C39.2227 37.7426 39.4648 37.9848 39.5617 38.2754L41.3055 53.0973C41.3055 54.2598 42.3711 55.1316 43.582 54.9863Z" fill="white"/>
<path d="M49.7336 59.6865C51.6061 59.6865 53.1242 58.1685 53.1242 56.2959C53.1242 54.4233 51.6061 52.9053 49.7336 52.9053C47.861 52.9053 46.3429 54.4233 46.3429 56.2959C46.3429 58.1685 47.861 59.6865 49.7336 59.6865Z" fill="white"/>
<path d="M53.2695 60.5557H46.1976C44.4055 60.6525 42.9523 62.1057 42.9523 63.9463V68.6447C42.9523 69.3229 43.5336 69.9041 44.2117 69.9041C44.8898 69.9041 45.4711 69.3229 45.4711 68.6447V64.7213C45.4711 64.4791 45.6648 64.2854 45.907 64.2854C46.1492 64.2854 46.343 64.4791 46.343 64.7213V78.5744C46.343 79.3979 46.9726 80.076 47.8445 80.076C48.7164 80.076 49.3461 79.4463 49.3461 78.5744V71.5994C49.3461 71.3572 49.5398 71.1635 49.782 71.1635C50.0242 71.1635 50.218 71.3572 50.218 71.5994V78.5744C50.218 79.3979 50.8476 80.076 51.7195 80.076C52.5914 80.076 53.2211 79.4463 53.2211 78.5744V64.6729C53.2211 64.4307 53.4148 64.2369 53.657 64.2369C53.8992 64.2369 54.093 64.4307 54.093 64.6729V68.5963C54.093 69.2744 54.6742 69.8557 55.3523 69.8557C56.0305 69.8557 56.6117 69.2744 56.6117 68.5963V63.8978C56.5148 62.1057 55.1101 60.6525 53.2695 60.5557Z" fill="white"/>
<path d="M67.1226 29.7508C69.9048 29.7508 72.1601 27.4954 72.1601 24.7133C72.1601 21.9311 69.9048 19.6758 67.1226 19.6758C64.3405 19.6758 62.0851 21.9311 62.0851 24.7133C62.0851 27.4954 64.3405 29.7508 67.1226 29.7508Z" fill="white"/>
<path d="M73.4195 31.0098H60.8742C57.3867 31.0098 54.6258 33.8191 54.6258 37.2582V52.6129C54.6258 53.8238 55.5945 54.841 56.8539 54.841C58.1133 54.841 59.082 53.8723 59.082 52.6129V38.5176C59.082 38.1785 59.3727 37.8879 59.7117 37.8879C60.0508 37.8879 60.3414 38.1785 60.3414 38.5176V76.5895C60.3414 78.4785 61.7461 80.0285 63.4899 80.0285C65.2336 80.0285 66.6383 78.4785 66.6383 76.5895V54.8895C66.6383 54.5504 66.9289 54.2598 67.268 54.2598C67.607 54.2598 67.8977 54.5504 67.8977 54.8895V76.5895C67.8977 78.4785 69.3024 80.0285 71.0461 80.0285C72.7899 80.0285 74.1945 78.4785 74.1945 76.5895V38.5176C74.1945 38.1785 74.4852 37.8879 74.8242 37.8879C75.1633 37.8879 75.4539 38.1785 75.4539 38.5176V52.6613C75.4539 53.8723 76.4227 54.8895 77.682 54.8895C78.9414 54.8895 79.9102 53.9207 79.9102 52.6613V37.3066C79.7164 33.8191 76.8586 31.0098 73.4195 31.0098Z" fill="white"/>
</svg>
