<svg width="141" height="140" viewBox="0 0 141 140" fill="none" xmlns="http://www.w3.org/2000/svg">
<circle cx="70.5" cy="70" r="70" fill="#E3EDF9"/>
<path fill-rule="evenodd" clip-rule="evenodd" d="M40 40.002C40 37.3498 41.0536 34.8062 42.9289 32.9309C44.8043 31.0555 47.3478 30.002 50 30.002H90C92.6522 30.002 95.1957 31.0555 97.0711 32.9309C98.9464 34.8062 100 37.3498 100 40.002V100.002C100 102.654 98.9464 105.198 97.0711 107.073C95.1957 108.948 92.6522 110.002 90 110.002H50C47.3478 110.002 44.8043 108.948 42.9289 107.073C41.0536 105.198 40 102.654 40 100.002V40.002ZM57.45 97.992L57.455 97.967L57.475 97.867C57.5963 97.2817 57.7263 96.6983 57.865 96.117C58.13 94.977 58.51 93.467 58.96 91.967C59.31 90.797 59.69 89.692 60.07 88.802C60.54 89.747 61.035 90.922 61.57 92.207L61.72 92.577C62.305 93.992 62.935 95.512 63.55 96.702C63.885 97.342 64.285 98.027 64.75 98.577C65.12 99.012 66.05 100.002 67.5 100.002C69.13 100.002 70.2 99.022 70.79 98.317C71.32 97.677 71.755 96.882 72.055 96.332L72.125 96.212L72.495 95.557C72.5983 95.7303 72.72 95.947 72.86 96.207L72.925 96.322C73.225 96.872 73.665 97.672 74.2 98.322C74.8 99.032 75.87 100.002 77.5 100.002C78.78 100.002 80.035 99.352 80.85 98.882C81.795 98.332 82.765 97.632 83.605 96.972C84.5847 96.2044 85.5353 95.4005 86.455 94.562L86.69 94.342L86.71 94.327C87.194 93.8734 87.4781 93.2462 87.4996 92.5833C87.5212 91.9203 87.2785 91.276 86.825 90.792C86.3715 90.3079 85.7443 90.0239 85.0813 90.0023C84.4184 89.9808 83.774 90.2234 83.29 90.677L83.28 90.687L83.24 90.727L83.08 90.872C82.257 91.6233 81.4065 92.3438 80.53 93.032C79.8317 93.5906 79.0967 94.1017 78.33 94.562C78.13 94.6753 77.965 94.7636 77.835 94.827C77.6282 94.4895 77.4314 94.1461 77.245 93.797L77.215 93.747C76.8313 93.0008 76.3705 92.297 75.84 91.647C75.4374 91.1453 74.9296 90.738 74.3526 90.4538C73.7755 90.1696 73.1431 90.0153 72.5 90.002C70.9 90.002 69.805 90.902 69.16 91.637C68.56 92.327 68.09 93.172 67.77 93.747L67.72 93.847C67.285 92.947 66.82 91.832 66.315 90.602L66.19 90.297C65.5801 88.7411 64.884 87.2204 64.105 85.742C63.7379 85.054 63.2915 84.4113 62.775 83.827C62.305 83.327 61.365 82.502 60 82.502C58.62 82.502 57.68 83.342 57.21 83.867C56.685 84.452 56.265 85.167 55.93 85.837C55.2131 87.3517 54.6244 88.9239 54.17 90.537C53.5372 92.6554 52.9983 94.8009 52.555 96.967V96.997L52.55 97.007C52.4397 97.6484 52.584 98.3076 52.9521 98.8444C53.3201 99.3812 53.8831 99.7532 54.5212 99.8815C55.1593 100.01 55.8222 99.8841 56.3692 99.5313C56.9161 99.1784 57.3038 98.6262 57.45 97.992ZM55 42.702C54.337 42.702 53.7011 42.9653 53.2322 43.4342C52.7634 43.903 52.5 44.5389 52.5 45.202C52.5 45.865 52.7634 46.5009 53.2322 46.9697C53.7011 47.4386 54.337 47.702 55 47.702H85C85.663 47.702 86.2989 47.4386 86.7678 46.9697C87.2366 46.5009 87.5 45.865 87.5 45.202C87.5 44.5389 87.2366 43.903 86.7678 43.4342C86.2989 42.9653 85.663 42.702 85 42.702H55ZM52.5 56.252C52.5 55.5889 52.7634 54.953 53.2322 54.4842C53.7011 54.0153 54.337 53.752 55 53.752H85C85.663 53.752 86.2989 54.0153 86.7678 54.4842C87.2366 54.953 87.5 55.5889 87.5 56.252C87.5 56.915 87.2366 57.5509 86.7678 58.0197C86.2989 58.4886 85.663 58.752 85 58.752H55C54.337 58.752 53.7011 58.4886 53.2322 58.0197C52.7634 57.5509 52.5 56.915 52.5 56.252ZM55 65.002C54.337 65.002 53.7011 65.2654 53.2322 65.7342C52.7634 66.203 52.5 66.8389 52.5 67.502C52.5 68.165 52.7634 68.8009 53.2322 69.2697C53.7011 69.7386 54.337 70.002 55 70.002H85C85.663 70.002 86.2989 69.7386 86.7678 69.2697C87.2366 68.8009 87.5 68.165 87.5 67.502C87.5 66.8389 87.2366 66.203 86.7678 65.7342C86.2989 65.2654 85.663 65.002 85 65.002H55Z" fill="#132956"/>
</svg>
