<svg width="40" height="41" viewBox="0 0 40 41" fill="none" xmlns="http://www.w3.org/2000/svg">
<rect y="0.5" width="40" height="40" rx="20" fill="#E3EDF9"/>
<path fill-rule="evenodd" clip-rule="evenodd" d="M14.2279 6.584C15.7208 6.51527 16.1968 6.5 19.9998 6.5C23.8027 6.5 24.2787 6.51655 25.7703 6.584C27.2619 6.65145 28.2801 6.88945 29.171 7.23436C30.1039 7.58691 30.9503 8.138 31.6503 8.85073C32.363 9.54945 32.9128 10.3945 33.2641 11.3287C33.6103 12.2196 33.847 13.2378 33.9158 14.7269C33.9845 16.2224 33.9998 16.6984 33.9998 20.5C33.9998 24.3029 33.9832 24.7789 33.9158 26.2718C33.8483 27.7609 33.6103 28.7791 33.2641 29.67C32.9128 30.6043 32.3621 31.4508 31.6503 32.1505C30.9503 32.8633 30.1039 33.4131 29.171 33.7644C28.2801 34.1105 27.2619 34.3473 25.7728 34.416C24.2787 34.4847 23.8027 34.5 19.9998 34.5C16.1968 34.5 15.7208 34.4835 14.2279 34.416C12.7388 34.3485 11.7207 34.1105 10.8298 33.7644C9.89547 33.413 9.04898 32.8623 8.34921 32.1505C7.63697 31.4514 7.08579 30.6053 6.73412 29.6713C6.38921 28.7804 6.15248 27.7622 6.08376 26.2731C6.01503 24.7776 5.99976 24.3016 5.99976 20.5C5.99976 16.6971 6.0163 16.2211 6.08376 14.7295C6.15121 13.2378 6.38921 12.2196 6.73412 11.3287C7.08631 10.3946 7.63791 9.54858 8.35048 8.84945C9.04926 8.13737 9.8949 7.5862 10.8285 7.23436C11.7194 6.88945 12.7376 6.65273 14.2267 6.584H14.2279ZM25.657 9.104C24.1807 9.03655 23.7378 9.02255 19.9998 9.02255C16.2618 9.02255 15.8188 9.03655 14.3425 9.104C12.9768 9.16636 12.2361 9.39418 11.7423 9.58636C11.0894 9.84091 10.6223 10.1425 10.1323 10.6325C9.66781 11.0844 9.31035 11.6345 9.08612 12.2425C8.89394 12.7364 8.66612 13.4771 8.60376 14.8427C8.5363 16.3191 8.5223 16.762 8.5223 20.5C8.5223 24.238 8.5363 24.6809 8.60376 26.1573C8.66612 27.5229 8.89394 28.2636 9.08612 28.7575C9.31012 29.3645 9.66776 29.9156 10.1323 30.3675C10.5841 30.832 11.1352 31.1896 11.7423 31.4136C12.2361 31.6058 12.9768 31.8336 14.3425 31.896C15.8188 31.9635 16.2605 31.9775 19.9998 31.9775C23.739 31.9775 24.1807 31.9635 25.657 31.896C27.0227 31.8336 27.7634 31.6058 28.2572 31.4136C28.9101 31.1591 29.3772 30.8575 29.8672 30.3675C30.3318 29.9156 30.6894 29.3645 30.9134 28.7575C31.1056 28.2636 31.3334 27.5229 31.3958 26.1573C31.4632 24.6809 31.4772 24.238 31.4772 20.5C31.4772 16.762 31.4632 16.3191 31.3958 14.8427C31.3334 13.4771 31.1056 12.7364 30.9134 12.2425C30.6588 11.5896 30.3572 11.1225 29.8672 10.6325C29.4153 10.1681 28.8652 9.81063 28.2572 9.58636C27.7634 9.39418 27.0227 9.16636 25.657 9.104ZM18.2116 24.8158C19.2102 25.2315 20.3222 25.2876 21.3577 24.9746C22.3931 24.6615 23.2877 23.9986 23.8887 23.0992C24.4897 22.1998 24.7598 21.1197 24.6529 20.0432C24.546 18.9668 24.0687 17.9609 23.3025 17.1973C22.8141 16.7092 22.2235 16.3354 21.5733 16.1029C20.9231 15.8704 20.2294 15.785 19.5422 15.8528C18.855 15.9206 18.1914 16.1399 17.5991 16.4949C17.0069 16.8499 16.5007 17.3319 16.1171 17.906C15.7334 18.4801 15.4818 19.1322 15.3804 19.8152C15.279 20.4983 15.3303 21.1953 15.5306 21.8561C15.7309 22.5169 16.0753 23.1251 16.5389 23.6369C17.0024 24.1487 17.5737 24.5513 18.2116 24.8158ZM14.9114 15.4116C15.5796 14.7434 16.3729 14.2134 17.246 13.8517C18.119 13.4901 19.0548 13.304 19.9998 13.304C20.9448 13.304 21.8805 13.4901 22.7536 13.8517C23.6266 14.2134 24.4199 14.7434 25.0881 15.4116C25.7563 16.0798 26.2864 16.8731 26.648 17.7462C27.0097 18.6193 27.1958 19.555 27.1958 20.5C27.1958 21.445 27.0097 22.3807 26.648 23.2538C26.2864 24.1269 25.7563 24.9202 25.0881 25.5884C23.7386 26.9379 21.9083 27.696 19.9998 27.696C18.0912 27.696 16.2609 26.9379 14.9114 25.5884C13.5619 24.2388 12.8037 22.4085 12.8037 20.5C12.8037 18.5915 13.5619 16.7612 14.9114 15.4116ZM28.7918 14.3756C28.9573 14.2194 29.0899 14.0316 29.1816 13.8232C29.2733 13.6149 29.3222 13.3903 29.3256 13.1626C29.3289 12.935 29.2865 12.7091 29.2009 12.4981C29.1153 12.2872 28.9883 12.0956 28.8273 11.9346C28.6664 11.7736 28.4748 11.6466 28.2638 11.561C28.0529 11.4754 27.8269 11.4331 27.5993 11.4364C27.3717 11.4397 27.1471 11.4887 26.9387 11.5803C26.7303 11.672 26.5425 11.8046 26.3863 11.9702C26.0825 12.2922 25.9162 12.72 25.9226 13.1626C25.9291 13.6053 26.1078 14.028 26.4209 14.3411C26.7339 14.6541 27.1566 14.8328 27.5993 14.8393C28.042 14.8457 28.4697 14.6794 28.7918 14.3756Z" fill="#132956"/>
</svg>
