<svg width="40" height="41" viewBox="0 0 40 41" fill="none" xmlns="http://www.w3.org/2000/svg">
<rect y="0.5" width="40" height="40" rx="20" fill="#E3EDF9"/>
<path d="M12.7847 11.9465C12.7844 12.5948 12.5266 13.2164 12.0679 13.6745C11.6093 14.1327 10.9875 14.3899 10.3392 14.3896C9.69093 14.3893 9.06934 14.1314 8.61118 13.6728C8.15301 13.2142 7.89579 12.5923 7.89612 11.9441C7.89644 11.2958 8.15428 10.6742 8.6129 10.216C9.07153 9.75787 9.69338 9.50065 10.3416 9.50098C10.9899 9.5013 11.6115 9.75914 12.0697 10.2178C12.5278 10.6764 12.7851 11.2982 12.7847 11.9465ZM12.8581 16.1996H7.96945V31.501H12.8581V16.1996ZM20.5821 16.1996H15.7179V31.501H20.5332V23.4714C20.5332 18.9983 26.3629 18.5828 26.3629 23.4714V31.501H31.1904V21.8093C31.1904 14.2686 22.562 14.5497 20.5332 18.2528L20.5821 16.1996Z" fill="#132956"/>
</svg>
