<svg width="100" height="100" viewBox="0 0 100 100" fill="none" xmlns="http://www.w3.org/2000/svg">
<circle cx="50" cy="50" r="50" fill="#FF8B00"/>
<path d="M66.6565 26.6445C67.1086 26.6465 67.5505 26.7793 67.9288 27.027C68.3088 27.2852 68.6062 27.6476 68.7853 28.0707L76.1698 45.276C76.2999 45.5777 76.3637 45.9039 76.3569 46.2324V46.2531C76.3569 48.8258 75.3349 51.2932 73.5157 53.1123C71.6965 54.9315 69.2292 55.9535 66.6565 55.9535C64.0838 55.9535 61.6165 54.9315 59.7973 53.1123C57.9781 51.2932 56.9561 48.8258 56.9561 46.2531V46.2324C56.9493 45.9039 57.0131 45.5777 57.1432 45.276L63.1597 31.2556H52.4032V62.5978L68.6939 69.3503C69.1867 69.5539 69.5935 69.9222 69.8451 70.3924C70.0967 70.8625 70.1773 71.4054 70.0733 71.9284C69.9693 72.4514 69.6871 72.9221 69.2748 73.2602C68.8625 73.5983 68.3456 73.783 67.8124 73.7826H32.5451C32.0119 73.783 31.4951 73.5983 31.0827 73.2602C30.6704 72.9221 30.3882 72.4514 30.2842 71.9284C30.1802 71.4054 30.2608 70.8625 30.5124 70.3924C30.764 69.9222 31.1708 69.5539 31.6636 69.3503L47.7963 62.6644V31.2556H36.8402L42.8567 45.276C42.9868 45.5777 43.0506 45.9039 43.0438 46.2324V46.2531C43.0438 48.8258 42.0218 51.2932 40.2026 53.1123C38.3835 54.9315 35.9161 55.9535 33.3434 55.9535C30.7707 55.9535 28.3034 54.9315 26.4842 53.1123C24.6651 51.2932 23.6431 48.8258 23.6431 46.2531V46.2324C23.6363 45.9039 23.7001 45.5777 23.8302 45.276L31.2146 28.0707C31.3915 27.6474 31.6894 27.2857 32.0711 27.0312C32.448 26.78 32.8905 26.6455 33.3434 26.6445H47.7963V23.8171C47.7963 23.2062 48.039 22.6203 48.471 22.1883C48.9029 21.7564 49.4888 21.5137 50.0998 21.5137C50.7107 21.5137 51.2966 21.7564 51.7286 22.1883C52.1605 22.6203 52.4032 23.2062 52.4032 23.8171V26.6445H66.6565ZM38.2622 46.2573L33.3434 34.794L28.4288 46.2531L38.2622 46.2573ZM71.5753 46.2573L66.6565 34.7981L61.7377 46.2573H71.5753Z" fill="white"/>
</svg>
