<svg width="180" height="180" viewBox="0 0 180 180" fill="none" xmlns="http://www.w3.org/2000/svg">
<circle cx="90" cy="90" r="90" fill="#132956"/>
<g clip-path="url(#clip0_126_488)">
<path d="M114.915 80.9027H92.8273V89.0402C92.8273 94.8091 88.1337 99.5027 82.3648 99.5027C76.5959 99.5027 71.9023 94.8091 71.9023 89.0402V71.3702L62.4716 77.0374C59.667 78.7085 57.9523 81.7455 57.9523 85.0005V91.8738L46.3273 98.5872C44.1041 99.866 43.3339 102.714 44.6272 104.937L56.2522 125.078C57.5309 127.301 60.3791 128.057 62.6023 126.778L77.6276 118.103H97.4773C102.607 118.103 106.777 113.932 106.777 108.803H109.102C111.674 108.803 113.752 106.725 113.752 104.153V94.8527H114.915C116.847 94.8527 118.402 93.2979 118.402 91.3652V84.3902C118.402 82.4576 116.847 80.9027 114.915 80.9027ZM136.377 75.468L124.752 55.3277C123.474 53.1044 120.626 52.3488 118.402 53.6276L103.377 62.3027H88.5261C86.7823 62.3027 85.0822 62.7968 83.6 63.7122L78.732 66.7493C77.3661 67.5921 76.5523 69.0888 76.5523 70.6872V89.0402C76.5523 92.2516 79.1534 94.8527 82.3648 94.8527C85.5762 94.8527 88.1773 92.2516 88.1773 89.0402V76.2527H114.915C119.405 76.2527 123.052 79.9001 123.052 84.3902V88.5316L134.677 81.8182C136.901 80.5249 137.656 77.6913 136.377 75.468Z" fill="white"/>
</g>
<defs>
<clipPath id="clip0_126_488">
<rect width="93" height="74.4" fill="white" transform="translate(44 53)"/>
</clipPath>
</defs>
</svg>
