<svg width="100" height="100" viewBox="0 0 100 100" fill="none" xmlns="http://www.w3.org/2000/svg">
<circle cx="50" cy="50" r="48.5" stroke="#FF8B00" stroke-width="3"/>
<path d="M52.7083 40.7148C52.1997 40.7148 51.6961 40.815 51.2262 41.0097C50.7563 41.2043 50.3294 41.4896 49.9698 41.8492C49.6101 42.2088 49.3249 42.6358 49.1302 43.1057C48.9356 43.5755 48.8354 44.0792 48.8354 44.5878C48.8354 45.0964 48.9356 45.6 49.1302 46.0699C49.3249 46.5397 49.6101 46.9667 49.9698 47.3263C50.3294 47.686 50.7563 47.9712 51.2262 48.1659C51.6961 48.3605 52.1997 48.4607 52.7083 48.4607C53.7355 48.4607 54.7206 48.0526 55.4469 47.3263C56.1732 46.6 56.5812 45.6149 56.5812 44.5878C56.5812 43.5606 56.1732 42.5755 55.4469 41.8492C54.7206 41.1229 53.7355 40.7148 52.7083 40.7148Z" fill="#FF8B00"/>
<path d="M53.2771 25.6291C42.8771 25.3312 34.3187 33.402 33.8042 43.6124L28.6042 50.5457C28.4533 50.7469 28.3614 50.9862 28.3388 51.2366C28.3162 51.4871 28.3638 51.7389 28.4763 51.9638C28.5888 52.1888 28.7616 52.378 28.9756 52.5102C29.1895 52.6424 29.436 52.7124 29.6875 52.7124H33.75V60.8374C33.75 63.8166 36.1875 66.2541 39.1667 66.2541H41.875V71.6707C41.875 73.1603 43.0937 74.3791 44.5833 74.3791H58.125C59.6146 74.3791 60.8333 73.1603 60.8333 71.6707V61.7041C64.1835 60.1179 66.9952 57.5845 68.9206 54.4171C70.8461 51.2498 71.8008 47.5875 71.6666 43.8832C71.2875 34.0791 63.0541 25.927 53.2771 25.6291ZM60.8333 44.5874C60.8333 44.9395 60.8062 45.2916 60.7791 45.6437L63.0271 47.4312C63.2437 47.5937 63.2979 47.8645 63.1625 48.1082L60.9958 51.8728C60.8604 52.1166 60.5625 52.1978 60.3458 52.1166L57.6646 51.0332C57.0958 51.4666 56.5 51.8187 55.85 52.0895L55.4167 54.9603C55.3896 55.2312 55.1458 55.4207 54.875 55.4207H50.5417C50.2708 55.4207 50.0542 55.2312 50 54.9603L49.5937 52.0895C48.9167 51.8187 48.3208 51.4666 47.7521 51.0332L45.0708 52.1166C44.8271 52.1978 44.5292 52.1166 44.3937 51.8728L42.2271 48.1082C42.1617 47.9987 42.1393 47.8687 42.1644 47.7436C42.1894 47.6185 42.26 47.5071 42.3625 47.4312L44.6375 45.6437C44.6104 45.2916 44.5833 44.9395 44.5833 44.5874C44.5833 44.2353 44.6375 43.8562 44.6917 43.5312L42.3896 41.7437C42.1729 41.5812 42.1187 41.3103 42.2542 41.0395L44.4208 37.302C44.5562 37.0582 44.8271 36.977 45.0708 37.0582L47.7792 38.1416C48.3208 37.7353 48.9437 37.3562 49.5937 37.0853L50 34.2145C50.0542 33.9437 50.2708 33.7541 50.5417 33.7541H54.875C55.1458 33.7541 55.3625 33.9437 55.4167 34.2145L55.8229 37.0853C56.4729 37.3562 57.0687 37.7082 57.6375 38.1416L60.3458 37.0582C60.5896 36.977 60.8875 37.0582 60.9958 37.302L63.1625 41.0395C63.2296 41.1532 63.2529 41.2875 63.228 41.4172C63.203 41.5469 63.1316 41.663 63.0271 41.7437L60.725 43.5312C60.8062 43.8562 60.8333 44.2082 60.8333 44.5874Z" fill="#FF8B00"/>
</svg>
