<svg width="180" height="180" viewBox="0 0 180 180" fill="none" xmlns="http://www.w3.org/2000/svg">
<circle cx="90" cy="90" r="90" fill="#132956"/>
<path d="M124.45 121.801H95.2999V72.9826C99.1937 71.2783 102.117 67.7687 102.983 63.5006H124.45C125.914 63.5006 127.1 62.3147 127.1 60.8506V55.5506C127.1 54.0865 125.914 52.9006 124.45 52.9006H100.54C98.1222 49.7007 94.3211 47.6006 89.9999 47.6006C85.6787 47.6006 81.8777 49.7007 79.4595 52.9006H55.5499C54.0858 52.9006 52.8999 54.0865 52.8999 55.5506V60.8506C52.8999 62.3147 54.0858 63.5006 55.5499 63.5006H77.0166C77.0166 63.5006 80.8044 71.2783 84.6999 72.9826V121.801H55.5499C54.0858 121.801 52.8999 122.986 52.8999 124.451V129.751C52.8999 131.215 54.0858 132.401 55.5499 132.401H124.45C125.914 132.401 127.1 131.215 127.1 129.751V124.451C127.1 122.986 125.914 121.801 124.45 121.801Z" fill="white"/>
<path d="M53 102.36L50.68 100.248C42.44 92.776 37 87.832 37 81.8C37 76.856 40.872 73 45.8 73C48.584 73 51.256 74.296 53 76.328C54.744 74.296 57.416 73 60.2 73C65.128 73 69 76.856 69 81.8C69 87.832 63.56 92.776 55.32 100.248L53 102.36Z" fill="white"/>
<path d="M127 102.36L124.68 100.248C116.44 92.776 111 87.832 111 81.8C111 76.856 114.872 73 119.8 73C122.584 73 125.256 74.296 127 76.328C128.744 74.296 131.416 73 134.2 73C139.128 73 143 76.856 143 81.8C143 87.832 137.56 92.776 129.32 100.248L127 102.36Z" fill="white"/>
</svg>
