<svg width="100" height="100" viewBox="0 0 100 100" fill="none" xmlns="http://www.w3.org/2000/svg">
<circle cx="50" cy="50" r="50" fill="#FF8B00"/>
<path d="M74.8109 42.4765C76.1086 42.4811 77.3518 42.9987 78.2695 43.9164C79.1871 44.834 79.7047 46.0773 79.7094 47.375V50.3548C79.7047 51.6525 79.1871 52.8958 78.2695 53.8134C77.3518 54.7311 76.1086 55.2487 74.8109 55.2533H72.5119C71.5068 58.3332 69.7891 61.1324 67.4984 63.4234C67.1506 63.7683 66.7925 64.1013 66.4241 64.4226V73.1144C66.4229 73.671 66.2013 74.2044 65.8077 74.598C65.4142 74.9916 64.8807 75.2132 64.3241 75.2144H57.8738C57.3172 75.2132 56.7837 74.9916 56.3902 74.598C55.9966 74.2044 55.775 73.671 55.7738 73.1144V69.2548C54.8362 69.3845 53.8908 69.4495 52.9443 69.4493H44.3056C43.3576 69.4497 42.4107 69.3847 41.4717 69.2548V73.1144C41.4705 73.671 41.2489 74.2044 40.8553 74.598C40.4618 74.9916 39.9283 75.2132 39.3717 75.2144H32.9214C32.3648 75.2132 31.8313 74.9916 31.4377 74.598C31.0442 74.2044 30.8225 73.671 30.8214 73.1144V64.4226C30.4529 64.1013 30.0948 63.7683 29.7471 63.4234C26.8624 60.5378 24.9004 56.86 24.1102 52.8571C23.0839 52.8088 22.1156 52.3671 21.4064 51.6237C20.6972 50.8803 20.3015 49.8923 20.3015 48.8649C20.3015 47.8375 20.6972 46.8495 21.4064 46.1061C22.1156 45.3627 23.0839 44.921 24.1102 44.8727C25.0338 40.1956 27.5522 35.9841 31.2354 32.9573C34.9186 29.9304 39.5382 28.2758 44.3056 28.2761H52.9443C54.3389 28.2764 55.7299 28.4186 57.0957 28.7005L68.3473 22.1529C68.5274 22.0484 68.7331 21.9963 68.9413 22.0024C69.1494 22.0086 69.3517 22.0727 69.5254 22.1875C69.6991 22.3024 69.8373 22.4635 69.9244 22.6526C70.0115 22.8418 70.0441 23.0515 70.0184 23.2582C70.002 23.3925 69.9615 23.5227 69.8991 23.6428C68.1315 27.0191 67.4082 30.8449 67.8212 34.6335C69.9525 36.8634 71.5556 39.5438 72.5119 42.4765H74.8109ZM56.7951 33.9792C56.7951 33.4223 56.5738 32.8881 56.18 32.4943C55.7862 32.1005 55.252 31.8792 54.6951 31.8792H43.2976C42.7406 31.8792 42.2065 32.1005 41.8127 32.4943C41.4188 32.8881 41.1976 33.4223 41.1976 33.9792C41.1976 34.5362 41.4188 35.0703 41.8127 35.4641C42.2065 35.858 42.7406 36.0792 43.2976 36.0792H54.6951C55.252 36.0792 55.7862 35.858 56.18 35.4641C56.5738 35.0703 56.7951 34.5362 56.7951 33.9792ZM55.6986 56.7079C55.6959 55.4877 55.2515 54.3098 54.4475 53.3921C53.9145 52.7825 53.2766 52.2734 52.5641 51.8889C51.948 51.5687 51.2925 51.3309 50.6144 51.1815C50.0257 51.058 49.4255 50.9972 48.8239 51.0003C48.461 51.001 48.0987 50.9714 47.7407 50.9118C47.348 50.8461 46.9668 50.724 46.609 50.5493C46.2804 50.382 45.9899 50.1488 45.7557 49.8641C45.5116 49.5762 45.3701 49.2154 45.3534 48.8384C45.3719 48.5314 45.4717 48.235 45.6426 47.9793C45.8136 47.7237 46.0494 47.5182 46.326 47.3838C47.0912 46.9351 47.9634 46.7014 48.8504 46.7074C49.1533 46.7296 49.4536 46.7784 49.7479 46.8533L49.854 46.8798C50.2253 46.9684 50.5868 47.0943 50.9327 47.2556C51.2578 47.4028 51.5541 47.6063 51.8081 47.8569C51.971 48.0195 52.1642 48.1484 52.3769 48.2362C52.5896 48.3241 52.8175 48.3692 53.0476 48.369C53.2777 48.3688 53.5055 48.3233 53.718 48.235C53.9305 48.1468 54.1235 48.0175 54.2861 47.8547C54.4487 47.6918 54.5776 47.4986 54.6654 47.2859C54.7533 47.0732 54.7984 46.8453 54.7982 46.6152C54.798 46.3851 54.7525 46.1573 54.6642 45.9448C54.576 45.7323 54.4468 45.5393 54.2839 45.3767C53.7293 44.8282 53.081 44.3835 52.3696 44.0636C51.8027 43.8009 51.2101 43.5979 50.6012 43.458L50.5525 43.4491V42.1228C50.5525 41.6585 50.3681 41.2132 50.0398 40.8848C49.7114 40.5565 49.2661 40.3721 48.8018 40.3721C48.3375 40.3721 47.8922 40.5565 47.5638 40.8848C47.2355 41.2132 47.0511 41.6585 47.0511 42.1228V43.3961C46.1309 43.5845 45.251 43.9331 44.4515 44.4262C43.676 44.8767 43.0294 45.5193 42.5742 46.292C42.1189 47.0647 41.8701 47.9417 41.8519 48.8384C41.8649 50.0196 42.2832 51.1605 43.0367 52.0702C43.5846 52.7424 44.2687 53.2909 45.0439 53.6794C45.7133 54.013 46.4284 54.2454 47.166 54.3691C47.714 54.4593 48.2685 54.5036 48.8239 54.5017C49.1758 54.4986 49.527 54.5327 49.8717 54.6034C50.2407 54.6846 50.5974 54.8139 50.9327 54.9881C51.2661 55.1711 51.5652 55.4104 51.817 55.6954C52.0596 55.9772 52.1944 56.336 52.1972 56.7079C52.1972 56.9333 52.1972 57.4594 51.313 58.0342C50.5329 58.5063 49.6384 58.7555 48.7266 58.7548C48.3496 58.7353 47.9744 58.6895 47.6037 58.6177C47.244 58.5412 46.893 58.4286 46.5559 58.2817C46.2353 58.1397 45.9533 57.9229 45.7336 57.6495C45.4277 57.3062 44.999 57.0971 44.5401 57.0672C44.0813 57.0374 43.6291 57.1893 43.2813 57.49C42.9335 57.7908 42.718 58.2163 42.6814 58.6747C42.6447 59.133 42.7898 59.5874 43.0854 59.9396C43.6687 60.637 44.4119 61.183 45.2517 61.5312C45.8145 61.7704 46.4015 61.9483 47.0024 62.0617L47.0466 62.075V63.3792C47.0466 63.8441 47.2313 64.29 47.5601 64.6187C47.8888 64.9475 48.3347 65.1322 48.7996 65.1322C49.2645 65.1322 49.7104 64.9475 50.0391 64.6187C50.3678 64.29 50.5525 63.8441 50.5525 63.3792V62.0529C51.497 61.8552 52.3984 61.4898 53.214 60.9742C53.9637 60.5409 54.5873 59.9193 55.0231 59.1711C55.4588 58.4228 55.6917 57.5737 55.6986 56.7079Z" fill="white"/>
</svg>
