<svg width="100" height="100" viewBox="0 0 100 100" fill="none" xmlns="http://www.w3.org/2000/svg">
<circle cx="50" cy="50" r="48.5" stroke="#FF8B00" stroke-width="3"/>
<path d="M32.463 68.999C31.3689 68.999 30.4561 68.6333 29.7246 67.9018C28.9931 67.1703 28.6266 66.2567 28.625 65.161V41.962C28.625 40.8679 28.9915 39.9552 29.7246 39.2237C30.4577 38.4922 31.3697 38.1256 32.4606 38.124H42.875V34.8347C42.875 33.7422 43.2415 32.8294 43.9746 32.0963C44.7077 31.3632 45.6205 30.9974 46.713 30.999H53.2894C54.3819 30.999 55.2947 31.3648 56.0278 32.0963C56.7608 32.8278 57.1266 33.7406 57.125 34.8347V38.124H67.5394C68.6319 38.124 69.5439 38.4906 70.2754 39.2237C71.0069 39.9567 71.3734 40.8695 71.375 41.962V65.1634C71.375 66.2559 71.0085 67.1687 70.2754 67.9018C69.5423 68.6349 68.6303 69.0006 67.5394 68.999H32.463ZM45.25 38.124H54.75V34.8347C54.75 34.4705 54.598 34.1356 54.294 33.83C53.99 33.5244 53.6551 33.3724 53.2894 33.374H46.7106C46.3465 33.374 46.0116 33.526 45.706 33.83C45.4004 34.134 45.2484 34.4689 45.25 34.8347V38.124Z" fill="#FF8B00"/>
</svg>
