<svg width="40" height="41" viewBox="0 0 40 41" fill="none" xmlns="http://www.w3.org/2000/svg">
<rect y="0.5" width="40" height="40" rx="20" fill="#E3EDF9"/>
<path d="M20.4632 5.525C22.1007 5.5 23.7257 5.5125 25.3507 5.5C25.4507 7.41248 26.1382 9.36245 27.5381 10.7124C28.9381 12.0999 30.9131 12.7374 32.8381 12.9499V17.9873C31.0381 17.9248 29.2256 17.5498 27.5881 16.7749C26.8757 16.4499 26.2132 16.0374 25.5632 15.6124C25.5507 19.2623 25.5757 22.9123 25.5382 26.5497C25.4382 28.2997 24.8632 30.0372 23.8507 31.4747C22.2132 33.8746 19.3757 35.4371 16.4633 35.4871C14.6758 35.5871 12.8883 35.0996 11.3633 34.1996C8.83838 32.7122 7.0634 29.9872 6.80091 27.0622C6.77591 26.4372 6.76341 25.8122 6.78841 25.1998C7.0134 22.8248 8.18839 20.5498 10.0134 18.9998C12.0883 17.1999 14.9883 16.3374 17.7008 16.8499C17.7258 18.6998 17.6508 20.5498 17.6508 22.3998C16.4133 21.9998 14.9633 22.1123 13.8758 22.8623C13.0883 23.3748 12.4883 24.1623 12.1758 25.0498C11.9133 25.6872 11.9883 26.3872 12.0008 27.0622C12.3008 29.1122 14.2758 30.8372 16.3758 30.6497C17.7758 30.6372 19.1133 29.8247 19.8382 28.6372C20.0757 28.2247 20.3382 27.7997 20.3507 27.3122C20.4757 25.0748 20.4257 22.8498 20.4382 20.6123C20.4507 15.5749 20.4257 10.5499 20.4632 5.525Z" fill="#132956"/>
</svg>
