<svg width="141" height="140" viewBox="0 0 141 140" fill="none" xmlns="http://www.w3.org/2000/svg">
<circle cx="70.5" cy="70" r="70" fill="#E3EDF9"/>
<path d="M67.16 62.8377L50.3716 79.6132L33.5832 62.8377C30.2647 59.5176 28.005 55.2881 27.0901 50.6839C26.1751 46.0797 26.6458 41.3076 28.4427 36.9709C30.2396 32.6342 33.282 28.9277 37.1853 26.3199C41.0886 23.7122 45.6774 22.3203 50.3716 22.3203C55.0658 22.3203 59.6547 23.7122 63.5579 26.3199C67.4612 28.9277 70.5036 32.6342 72.3005 36.9709C74.0975 41.3076 74.5682 46.0797 73.6532 50.6839C72.7382 55.2881 70.4786 59.5176 67.16 62.8377ZM50.3716 54.6809C52.6609 54.6809 54.8563 53.7715 56.4751 52.1527C58.0938 50.534 59.0032 48.3385 59.0032 46.0493C59.0032 43.76 58.0938 41.5646 56.4751 39.9458C54.8563 38.3271 52.6609 37.4177 50.3716 37.4177C48.0824 37.4177 45.8869 38.3271 44.2682 39.9458C42.6494 41.5646 41.74 43.76 41.74 46.0493C41.74 48.3385 42.6494 50.534 44.2682 52.1527C45.8869 53.7715 48.0824 54.6809 50.3716 54.6809ZM106.002 101.68L89.2137 118.46L72.4253 101.675C69.1068 98.3554 66.8472 94.1259 65.9322 89.5217C65.0172 84.9175 65.4879 80.1454 67.2848 75.8087C69.0817 71.472 72.1241 67.7654 76.0274 65.1577C79.9307 62.55 84.5195 61.1581 89.2137 61.1581C93.908 61.1581 98.4968 62.55 102.4 65.1577C106.303 67.7654 109.346 71.472 111.143 75.8087C112.94 80.1454 113.41 84.9175 112.495 89.5217C111.58 94.1259 109.321 98.3597 106.002 101.68ZM89.2137 93.5229C91.503 93.5229 93.6984 92.6135 95.3172 90.9948C96.9359 89.3761 97.8453 87.1806 97.8453 84.8914C97.8453 82.6021 96.9359 80.4067 95.3172 78.7879C93.6984 77.1692 91.503 76.2598 89.2137 76.2598C86.9245 76.2598 84.729 77.1692 83.1103 78.7879C81.4915 80.4067 80.5821 82.6021 80.5821 84.8914C80.5821 87.1806 81.4915 89.3761 83.1103 90.9948C84.729 92.6135 86.9245 93.5229 89.2137 93.5229Z" fill="#132956"/>
</svg>
