<svg width="141" height="140" viewBox="0 0 141 140" fill="none" xmlns="http://www.w3.org/2000/svg">
<circle cx="70.5" cy="70" r="70" fill="#E3EDF9"/>
<path d="M25 61.4593C24.9943 53.2146 27.7852 45.2118 32.9164 38.7585C38.0477 32.3052 45.216 27.7831 53.25 25.9311C61.284 24.0791 69.7086 25.0068 77.1471 28.5625C84.5857 32.1181 90.5983 38.0916 94.2026 45.5067C99.4197 48.0501 103.954 51.803 107.427 56.453C110.9 61.103 113.213 66.5155 114.171 72.2398C115.13 77.9642 114.707 83.8347 112.937 89.3625C111.168 94.8903 108.104 99.9155 104 104.02C99.8959 108.124 94.8708 111.188 89.343 112.957C83.8152 114.726 77.9447 115.149 72.2203 114.191C66.496 113.232 61.0835 110.92 56.4335 107.447C51.7835 103.973 48.0306 99.4392 45.4872 94.2221C39.3438 91.2315 34.1652 86.5737 30.5425 80.7804C26.9199 74.9872 24.9993 68.292 25 61.4593ZM53.8335 97.0976C56.5094 100.568 59.8944 103.428 63.7628 105.487C67.6313 107.546 71.8942 108.756 76.2674 109.038C80.6405 109.319 85.0235 108.665 89.1239 107.119C93.2244 105.573 96.9481 103.171 100.047 100.072C103.146 96.9732 105.548 93.2495 107.094 89.1491C108.64 85.0486 109.294 80.6657 109.013 76.2925C108.731 71.9193 107.521 67.6564 105.462 63.7879C103.403 59.9195 100.543 56.5345 97.0725 53.8586C98.3416 59.8026 98.1036 65.9698 96.38 71.7983C94.6565 77.6269 91.5021 82.9316 87.2043 87.2294C82.9065 91.5273 77.6017 94.6816 71.7732 96.4052C65.9447 98.1287 59.7775 98.3668 53.8335 97.0976ZM49.7248 89.9845C51.7651 90.829 53.9026 91.4456 56.1372 91.8342L47.8751 83.5721C48.2637 85.803 48.8803 87.9405 49.7248 89.9845ZM64.377 92.1481C66.6115 91.9367 68.8162 91.4818 70.9519 90.7917L49.5174 69.3627C48.7639 71.3933 48.2082 73.492 47.8583 75.6294L64.377 92.1481ZM76.4675 88.3814C78.1342 87.4472 79.6999 86.371 81.1647 85.1528L55.3693 59.363C54.144 60.8107 53.0433 62.3596 52.079 63.9929L76.4675 88.3814ZM85.1277 81.1842C86.3421 79.7269 87.4183 78.163 88.3563 76.4926L63.9734 52.0985C62.3381 53.0625 60.7874 54.1632 59.3378 55.3888L85.122 81.1842H85.1277ZM90.7665 70.9715C91.4504 68.8713 91.9025 66.6816 92.123 64.4021L75.6043 47.8834C73.4369 48.2421 71.348 48.7952 69.3376 49.5425L90.7665 70.9771V70.9715ZM91.8091 56.1623C91.4264 53.9642 90.8062 51.8142 89.9594 49.7499C87.8951 48.9031 85.7451 48.2829 83.547 47.9002L91.8091 56.1623Z" fill="#132956"/>
</svg>
