<svg width="100" height="100" viewBox="0 0 100 100" fill="none" xmlns="http://www.w3.org/2000/svg">
<circle cx="50" cy="50" r="48.5" stroke="#FF8B00" stroke-width="3"/>
<path d="M48.9841 34.3582C49.2536 34.089 49.619 33.9378 49.9999 33.9378C50.3808 33.9378 50.7462 34.089 51.0157 34.3582L67.6715 51.0141C67.8042 51.1513 67.9629 51.2607 68.1383 51.336C68.3137 51.4112 68.5024 51.4508 68.6932 51.4524C68.8841 51.4539 69.0734 51.4175 69.25 51.3451C69.4266 51.2727 69.5871 51.1659 69.722 51.0309C69.8569 50.8959 69.9636 50.7353 70.0358 50.5586C70.108 50.3819 70.1442 50.1926 70.1425 50.0018C70.1407 49.8109 70.101 49.6223 70.0256 49.4469C69.9502 49.2716 69.8406 49.113 69.7032 48.9805L53.0493 32.3246C52.6489 31.9242 52.1734 31.6065 51.6502 31.3898C51.127 31.1731 50.5662 31.0615 49.9999 31.0615C49.4336 31.0615 48.8728 31.1731 48.3496 31.3898C47.8263 31.6065 47.3509 31.9242 46.9505 32.3246L30.2947 48.9805C30.1574 49.1131 30.048 49.2718 29.9727 49.4472C29.8975 49.6226 29.8579 49.8113 29.8563 50.0022C29.8548 50.193 29.8912 50.3823 29.9636 50.5589C30.036 50.7356 30.1428 50.896 30.2778 51.0309C30.4128 51.1658 30.5734 51.2725 30.7501 51.3447C30.9268 51.4169 31.1161 51.4532 31.307 51.4514C31.4978 51.4497 31.6864 51.4099 31.8618 51.3345C32.0371 51.2591 32.1957 51.1495 32.3282 51.0121L48.9841 34.3582Z" fill="#FF8B00"/>
<path d="M49.9998 37.4062L65.6379 53.0443C65.6954 53.1006 65.7536 53.1555 65.8123 53.2092V65.0887C65.8123 67.0724 64.2023 68.6824 62.2186 68.6824H55.7498C55.3686 68.6824 55.003 68.531 54.7334 68.2614C54.4638 67.9918 54.3123 67.6262 54.3123 67.2449V58.6199C54.3123 58.2387 54.1609 57.873 53.8913 57.6035C53.6217 57.3339 53.2561 57.1824 52.8748 57.1824H47.1248C46.7436 57.1824 46.378 57.3339 46.1084 57.6035C45.8388 57.873 45.6873 58.2387 45.6873 58.6199V67.2449C45.6873 67.6262 45.5359 67.9918 45.2663 68.2614C44.9967 68.531 44.6311 68.6824 44.2498 68.6824H37.7811C36.828 68.6824 35.9139 68.3038 35.2399 67.6298C34.566 66.9559 34.1873 66.0418 34.1873 65.0887V53.2092L34.3618 53.0443L49.9998 37.4062Z" fill="#FF8B00"/>
</svg>
