<svg width="180" height="180" viewBox="0 0 180 180" fill="none" xmlns="http://www.w3.org/2000/svg">
<circle cx="90" cy="90" r="90" fill="#132956"/>
<g clip-path="url(#clip0_126_495)">
<path d="M119.699 85.2383C126.988 92.523 126.988 104.344 119.699 111.633L93.2995 138.032C91.4795 139.852 88.5208 139.852 86.7008 138.032L60.3015 111.633C53.0121 104.344 53.0121 92.523 60.3015 85.2337C67.5908 77.9444 79.4115 77.9444 86.7008 85.2337L89.9955 88.533L93.2995 85.2337C100.589 77.9444 112.409 77.949 119.699 85.2383ZM90.0001 38.665C100.313 38.665 108.667 47.0184 108.667 57.3317C108.667 67.645 100.313 75.9984 90.0001 75.9984C79.6868 75.9984 71.3335 67.645 71.3335 57.3317C71.3335 47.0184 79.6868 38.665 90.0001 38.665Z" fill="white"/>
</g>
<defs>
<clipPath id="clip0_126_495">
<rect width="112" height="112" fill="white" transform="translate(34 34)"/>
</clipPath>
</defs>
</svg>
